<!-- Generated by IcoMoon.io -->
<svg version="1.1" width="45" height="45" viewBox="0 0 45 45" xmlns="http://www.w3.org/2000/svg">
<path d="M22.4999 0C34.9255 0 45 10.0744 45 22.5001C45 34.9258 34.9256 45 22.5001 45C10.0745 45 0 34.9256 0 22.5001C0 10.0745 10.073 0 22.4999 0Z" fill="url(#paint0_linear)"/>
<path d="M20.4243 2.82843e-08H4.89237C2.19378 2.82843e-08 2.82843e-08 2.19517 2.82843e-08 4.89237V20.4259C2.82843e-08 23.1244 2.19517 25.3182 4.89237 25.3182H20.4259C23.1244 25.3182 25.3182 23.1231 25.3182 20.4259V4.89237C25.3181 2.19517 23.1229 2.82843e-08 20.4243 2.82843e-08ZM21.9656 2.83081L22.5197 2.82942V7.03131L18.2869 7.04537L18.2729 2.84348L21.9656 2.83081ZM12.6591 8.42339C16.1705 8.42339 16.8947 11.7196 16.8947 12.6603C16.8947 14.9933 14.9935 16.8945 12.6591 16.8945C10.3234 16.8945 8.42355 14.9933 8.42355 12.6603C8.422 11.7196 9.1477 8.42339 12.6591 8.42339ZM22.5436 20.1192C22.5436 21.4566 21.4566 22.545 20.1165 22.545H5.15389C3.8151 22.545 2.7267 21.458 2.7267 20.1192V9.84096H6.24228C5.91604 10.6439 5.73176 11.7408 5.73176 12.6605C5.73176 16.4771 8.83676 19.5835 12.6548 19.5835C16.4728 19.5835 19.5763 16.4771 19.5763 12.6605C19.5763 11.7408 19.392 10.6439 19.0671 9.84096H22.5406V20.1192H22.5436Z" transform="translate(9.84082 9.84082)" fill="white"/>
<defs>
<linearGradient id="paint0_linear" x2="1" gradientUnits="userSpaceOnUse" gradientTransform="matrix(-30.2216 34.0804 -34.0804 -30.7669 54.9653 21.7399)">
<stop stop-color="#853BCB"/>
<stop offset="0.502762" stop-color="#DF326B"/>
<stop offset="1" stop-color="#FCB758"/>
</linearGradient>
</defs>
</svg>
