<svg version="1.1" width="13" height="13" viewBox="0 0 13 13" fill="none" xmlns="http://www.w3.org/2000/svg">
<path fill-rule="evenodd" clip-rule="evenodd" d="M8.04503 6.50003L12.68 1.86505C13.1067 1.43839 13.1067 0.746648 12.68 0.320053C12.2534 -0.106603 11.5617 -0.106603 11.135 0.320053L6.49998 4.9551L1.86494 0.319992C1.43828 -0.106664 0.746601 -0.106664 0.319946 0.319992C-0.106649 0.746648 -0.106649 1.43839 0.319946 1.86499L4.95498 6.49997L0.319946 11.135C-0.106649 11.5617 -0.106649 12.2534 0.319946 12.68C0.746601 13.1067 1.43828 13.1067 1.86494 12.68L6.49998 8.04496L11.135 12.68C11.5616 13.1067 12.2534 13.1067 12.68 12.68C13.1067 12.2534 13.1067 11.5617 12.68 11.135L8.04503 6.50003Z" fill="#B32424"/>
</svg>
