<svg version="1.1" width="30" height="30" viewBox="0 0 30 30" fill="none" xmlns="http://www.w3.org/2000/svg">
<path d="M14.9999 0C23.2847 0 30 6.71625 30 15.0001C30 23.2848 23.2847 30 14.9999 30C6.71522 30 0 23.2847 0 15.0001C0 6.71625 6.71532 0 14.9999 0Z" fill="#384B61"/>
<path d="M17.8172 1.6622C17.1619 1.94529 16.4568 2.1356 15.7172 2.22189C16.4729 1.78217 17.0522 1.08747 17.325 0.257861C16.6182 0.665662 15.8363 0.961009 15.0028 1.11939C14.3362 0.430353 13.3866 -1.06852e-07 12.3347 -1.06852e-07C10.3172 -1.06852e-07 8.68038 1.58723 8.68038 3.54652C8.68038 3.82498 8.71231 4.09592 8.77502 4.35564C5.73753 4.20755 3.04316 2.79467 1.24132 0.648774C0.926304 1.17284 0.746296 1.78124 0.746296 2.43187C0.746296 3.66186 1.39126 4.74933 2.37194 5.3841C1.77198 5.36536 1.2094 5.20687 0.715401 4.93974V4.98474C0.715401 6.70409 1.97536 8.13757 3.64786 8.46381C3.34129 8.54445 3.01875 8.58852 2.68499 8.58852C2.44969 8.58852 2.22097 8.567 1.99781 8.52478C2.46276 9.93478 3.81283 10.9604 5.41314 10.9886C4.16162 11.941 2.58562 12.5073 0.872858 12.5073C0.577511 12.5073 0.286902 12.4904 1.88562e-08 12.4577C1.61905 13.4645 3.53911 14.0523 5.60437 14.0523C12.3281 14.0523 16.005 8.64485 16.005 3.95731L15.9947 3.49792C16.7072 2.99908 17.3269 2.37472 17.8172 1.6622Z" transform="translate(6.56079 8.44304)" fill="white"/>
</svg>
