<svg version="1.1" width="30" height="30" viewBox="0 0 30 30" fill="none" xmlns="http://www.w3.org/2000/svg">
<path d="M14.9999 0C23.2837 0 30 6.71625 30 15.0001C30 23.2839 23.2838 30 15.0001 30C6.71635 30 0 23.2838 0 15.0001C0 6.71635 6.71532 0 14.9999 0Z" fill="#384B61"/>
<path d="M13.6162 1.88562e-08H3.26158C1.46252 1.88562e-08 1.88562e-08 1.46345 1.88562e-08 3.26158V13.6172C1.88562e-08 15.4163 1.46345 16.8788 3.26158 16.8788H13.6172C15.4163 16.8788 16.8788 15.4154 16.8788 13.6172V3.26158C16.8787 1.46345 15.4153 1.88562e-08 13.6162 1.88562e-08ZM14.6437 1.88721L15.0131 1.88628V4.68754L12.1913 4.69691L12.1819 1.89565L14.6437 1.88721ZM8.43941 5.6156C10.7803 5.6156 11.2631 7.81308 11.2631 8.44023C11.2631 9.99554 9.99564 11.263 8.43941 11.263C6.88225 11.263 5.6157 9.99554 5.6157 8.44023C5.61467 7.81308 6.09847 5.6156 8.43941 5.6156ZM15.0291 13.4128C15.0291 14.3044 14.3044 15.03 13.411 15.03H3.43592C2.5434 15.03 1.8178 14.3053 1.8178 13.4128V6.56064H4.16152C3.94403 7.09593 3.82117 7.82719 3.82117 8.44034C3.82117 10.9848 5.89117 13.0557 8.43653 13.0557C10.9819 13.0557 13.0508 10.9848 13.0508 8.44034C13.0508 7.82719 12.928 7.09593 12.7114 6.56064H15.027V13.4128H15.0291Z" transform="translate(6.56055 6.56048)" fill="white"/>
</svg>
