<!-- Generated by IcoMoon.io -->
<svg version="1.1" xmlns="http://www.w3.org/2000/svg" width="32" height="32" viewBox="0 0 32 32">
<title>f-vk</title>
<path fill="#fff" d="M16 32c8.837 0 16-7.163 16-16s-7.163-16-16-16c-8.837 0-16 7.163-16 16s7.163 16 16 16z"></path>
<path fill="#384b61" d="M15.397 23.017h1.256c0 0 0.379-0.042 0.573-0.25 0.178-0.192 0.172-0.552 0.172-0.552s-0.025-1.685 0.758-1.933c0.771-0.244 1.761 1.629 2.81 2.349 0.794 0.545 1.396 0.425 1.396 0.425l2.806-0.039c0 0 1.468-0.090 0.772-1.244-0.057-0.094-0.405-0.854-2.086-2.414-1.759-1.633-1.524-1.369 0.596-4.193 1.291-1.72 1.807-2.77 1.645-3.22-0.154-0.428-1.103-0.315-1.103-0.315l-3.159 0.020c0 0-0.234-0.032-0.408 0.072-0.17 0.102-0.279 0.339-0.279 0.339s-0.5 1.331-1.167 2.463c-1.407 2.389-1.969 2.515-2.199 2.366-0.535-0.346-0.401-1.389-0.401-2.13 0-2.315 0.351-3.28-0.684-3.53-0.343-0.083-0.596-0.138-1.474-0.147-1.127-0.012-2.081 0.003-2.621 0.268-0.359 0.176-0.637 0.568-0.468 0.591 0.209 0.028 0.682 0.127 0.932 0.469 0.324 0.44 0.312 1.429 0.312 1.429s0.186 2.725-0.434 3.064c-0.426 0.232-1.010-0.242-2.264-2.409-0.643-1.11-1.128-2.337-1.128-2.337s-0.094-0.229-0.26-0.352c-0.203-0.149-0.485-0.196-0.485-0.196l-3.002 0.020c0 0-0.451 0.013-0.616 0.209-0.147 0.174-0.012 0.535-0.012 0.535s2.35 5.498 5.011 8.269c2.44 2.54 5.211 2.374 5.211 2.374z"></path>
</svg>
