<svg version="1.1" width="31" height="27" viewBox="0 0 31 27" fill="none" xmlns="http://www.w3.org/2000/svg">
<rect x="0.5" y="0.5" width="30" height="26" rx="2.5" fill="white" stroke="#D65353"/>
<rect width="1" height="31" transform="translate(31 7) rotate(90)" fill="#D65353"/>
<path d="M12.5907 12H10.7447V5.708L9.30174 7.177L8.24874 6.072L10.9787 3.329H12.5907V12ZM18.1695 12.156C17.1901 12.156 16.3625 11.948 15.6865 11.532C15.0191 11.116 14.6855 10.5223 14.6855 9.751C14.6855 9.24833 14.8588 8.802 15.2055 8.412C15.5521 8.01333 15.9985 7.71867 16.5445 7.528C15.4005 7.12933 14.8285 6.449 14.8285 5.487C14.8285 4.733 15.1578 4.16533 15.8165 3.784C16.4838 3.394 17.2681 3.199 18.1695 3.199C18.7415 3.199 19.2701 3.27267 19.7555 3.42C20.2408 3.56733 20.6525 3.823 20.9905 4.187C21.3371 4.54233 21.5105 4.97567 21.5105 5.487C21.5105 6.44033 20.9341 7.12067 19.7815 7.528C20.3275 7.71867 20.7738 8.01333 21.1205 8.412C21.4758 8.802 21.6535 9.24833 21.6535 9.751C21.6535 10.5137 21.3155 11.1073 20.6395 11.532C19.9635 11.948 19.1401 12.156 18.1695 12.156ZM18.1695 6.8C18.5248 6.748 18.8541 6.63533 19.1575 6.462C19.4695 6.28867 19.6255 6.059 19.6255 5.773C19.6255 5.46967 19.4911 5.23133 19.2225 5.058C18.9538 4.876 18.6028 4.785 18.1695 4.785C17.7361 4.785 17.3808 4.876 17.1035 5.058C16.8348 5.23133 16.7005 5.46967 16.7005 5.773C16.7005 6.059 16.8565 6.28867 17.1685 6.462C17.4805 6.63533 17.8141 6.748 18.1695 6.8ZM18.1695 10.57C18.6201 10.57 19.0015 10.4747 19.3135 10.284C19.6255 10.0847 19.7815 9.829 19.7815 9.517C19.7815 9.19633 19.6038 8.93633 19.2485 8.737C18.9018 8.53767 18.5421 8.412 18.1695 8.36C17.7968 8.412 17.4328 8.53767 17.0775 8.737C16.7308 8.93633 16.5575 9.19633 16.5575 9.517C16.5575 9.829 16.7091 10.0847 17.0125 10.284C17.3245 10.4747 17.7101 10.57 18.1695 10.57Z" transform="translate(0 9)" fill="#373737"/>
</svg>
