<svg version="1.1" width="24" height="26" viewBox="0 0 24 26" fill="none" xmlns="http://www.w3.org/2000/svg">
<path d="M4.88706 5.15587C8.76246 1.68362 14.5622 1.63053 18.4912 4.80016L15.3769 4.91696C14.9749 4.93289 14.664 5.26206 14.6801 5.66025C14.6962 6.04783 15.0178 6.35046 15.4037 6.35046C15.4144 6.35046 15.4198 6.35046 15.4305 6.35046L20.2118 6.17525C20.6031 6.15932 20.9086 5.84608 20.9086 5.4585V5.40541C20.9086 5.39479 20.9086 5.38948 20.9086 5.37886V5.37355L20.7317 0.690794C20.7156 0.2926 20.3779 -0.0153367 19.9813 0.00059102C19.5793 0.0165188 19.2684 0.345692 19.2845 0.743886L19.397 3.6799C17.4513 2.10305 15.0553 1.18986 12.4931 1.06244C9.31992 0.903164 6.26998 1.98094 3.91686 4.09402C0.679323 6.99819 -0.69288 11.4155 0.336272 15.6204C0.416675 15.9496 0.711484 16.1673 1.03845 16.1673C1.09742 16.1673 1.15102 16.162 1.20998 16.146C1.59591 16.0505 1.83712 15.6629 1.74064 15.2806C0.840128 11.5854 2.04081 7.70432 4.88706 5.15587Z" fill="black"/>
<path d="M20.6452 0.546689C20.5487 0.164423 20.1575 -0.0744936 19.7715 0.021073C19.3856 0.116639 19.1444 0.504215 19.2409 0.886481C20.1467 4.58172 18.9407 8.46278 16.0944 11.0112C14.0951 12.8004 11.5865 13.6818 9.08871 13.6818C6.70343 13.6818 4.32352 12.8801 2.40458 11.2979L5.55635 11.0165C5.95301 10.9794 6.24782 10.6343 6.2103 10.2361C6.17277 9.83788 5.82436 9.55118 5.42235 9.58835L0.65716 10.0131C0.260508 10.0503 -0.0343013 10.3954 0.00321993 10.7935L0.432033 15.5135C0.464194 15.8851 0.780444 16.1665 1.1503 16.1665C1.17174 16.1665 1.19318 16.1665 1.21462 16.1612C1.61127 16.124 1.90608 15.7789 1.86856 15.3807L1.61127 12.5084C3.55701 14.0694 5.94229 14.9772 8.48837 15.1047C8.69205 15.1153 8.89574 15.1206 9.09407 15.1206C12.0475 15.1206 14.8562 14.0481 17.0646 12.0731C20.3022 9.16891 21.6744 4.75693 20.6452 0.546689Z" transform="translate(3.01843 9.8335)" fill="#D65353"/>
</svg>
