<svg version="1.1" width="39" height="32" viewBox="0 0 39 32" fill="none" xmlns="http://www.w3.org/2000/svg">
<path d="M34.8182 0H2.58817C1.172 0 0 1.172 0 2.58817V21.8774C0 23.2935 1.172 24.4655 2.58817 24.4655H5.17634V29.3489C5.17634 29.9349 5.86001 30.2279 6.29951 29.7884L11.6224 24.4655H34.8182C36.2344 24.4655 37.4064 23.2935 37.4064 21.8774V2.58817C37.4064 1.12317 36.2832 0 34.8182 0Z" transform="translate(1 1)" fill="white" stroke="#373737"/>
<path d="M7.88759 1.3185C7.64342 0.537168 6.91092 0 6.08075 0H5.39708C4.56691 0 3.83441 0.537168 3.59025 1.3185L0.025406 12.6479C-0.0722608 12.9897 0.123073 13.2827 0.416074 13.4292C0.757907 13.5269 1.05091 13.3315 1.19741 13.0385L2.07641 10.255H9.45026L10.3293 13.0385C10.4269 13.2827 10.6711 13.478 10.9153 13.478C10.9641 13.478 11.0129 13.478 11.1106 13.4292C11.4524 13.3315 11.5989 12.9897 11.5013 12.6479L7.88759 1.3185ZM2.41824 8.98535L4.71341 1.66034C4.81108 1.36734 5.05525 1.172 5.34825 1.172H6.03192C6.32492 1.172 6.61792 1.36734 6.66675 1.66034L8.96192 8.98535H2.41824Z" transform="translate(6.15094 5.19971)" fill="#6399CA"/>
<path d="M3.12534 5.12751C2.39284 5.12751 1.70917 5.37168 1.172 5.81118V0.586001C1.172 0.244167 0.879002 0 0.586001 0C0.244167 0 0 0.293 0 0.586001V9.62018C0 11.3782 1.41617 12.7944 3.17417 12.7944C5.27401 12.7944 6.98318 11.0852 6.98318 8.98535C6.98318 6.88551 5.22518 5.12751 3.12534 5.12751ZM3.12534 11.5735C2.051 11.5735 1.172 10.6945 1.172 9.62018V8.35052C1.172 7.27618 2.051 6.39718 3.12534 6.39718C4.59034 6.39718 5.76234 7.56918 5.76234 9.03418C5.76234 10.4992 4.59034 11.5735 3.12534 11.5735Z" transform="translate(18.4336 5.83459)" fill="#6399CA"/>
<path d="M3.85784 1.22084C4.68801 1.22084 5.46934 1.6115 5.95768 2.24634C6.15301 2.4905 6.54368 2.58817 6.78785 2.344C7.03201 2.14867 7.12968 1.758 6.88551 1.51384C6.15301 0.537168 5.02984 0 3.80901 0C1.70917 0 0 1.70917 0 3.80901C0 5.90884 1.70917 7.61801 3.80901 7.61801C5.02984 7.61801 6.15301 7.08085 6.88551 6.10418C7.08085 5.86001 7.03201 5.46934 6.78785 5.27401C6.54368 5.07868 6.15301 5.12751 5.95768 5.37168C5.46934 6.05534 4.68801 6.39718 3.85784 6.39718C2.39284 6.39718 1.22084 5.22518 1.22084 3.76017C1.22084 2.29517 2.39284 1.22084 3.85784 1.22084Z" transform="translate(26.1004 10.9621)" fill="#6399CA"/>
</svg>
