<svg version="1.1" width="38" height="40" viewBox="0 0 38 40" fill="none" xmlns="http://www.w3.org/2000/svg">
<path d="M27.2696 0C27.2696 2.5572 21.1583 4.6541 13.6091 4.6541C6.05991 4.6541 0 2.5572 0 0" transform="translate(1 26.5208)" fill="white"/>
<path d="M27.2696 0C27.2696 2.5572 21.1583 4.6541 13.6091 4.6541C6.05991 4.6541 0 2.5572 0 0" transform="translate(1 26.5208)" stroke="#373737" stroke-linecap="round" stroke-linejoin="round"/>
<path d="M27.2696 0C27.2696 2.5572 21.1583 4.6541 13.6091 4.6541C6.05991 4.6541 0 2.5572 0 0" transform="translate(1 22.327)" fill="white"/>
<path d="M27.2696 0C27.2696 2.5572 21.1583 4.6541 13.6091 4.6541C6.05991 4.6541 0 2.5572 0 0" transform="translate(1 22.327)" stroke="#373737" stroke-linecap="round" stroke-linejoin="round"/>
<path d="M27.2696 0C27.2696 2.5572 21.1583 4.65411 13.6091 4.65411C6.05991 4.65411 0 2.5572 0 0" transform="translate(1 18.1844)" fill="white"/>
<path d="M27.2696 0C27.2696 2.5572 21.1583 4.65411 13.6091 4.65411C6.05991 4.65411 0 2.5572 0 0" transform="translate(1 18.1844)" stroke="#373737" stroke-linecap="round" stroke-linejoin="round"/>
<path d="M27.2696 0C27.2696 2.5572 21.1583 4.6541 13.6091 4.6541C6.05991 4.6541 0 2.60834 0 0" transform="translate(1 13.9905)" fill="white"/>
<path d="M27.2696 0C27.2696 2.5572 21.1583 4.6541 13.6091 4.6541C6.05991 4.6541 0 2.60834 0 0" transform="translate(1 13.9905)" stroke="#373737" stroke-linecap="round" stroke-linejoin="round"/>
<path d="M27.2696 0C27.2696 2.5572 21.1583 4.6541 13.6091 4.6541C6.05991 4.6541 0 2.5572 0 0" transform="translate(1 9.84799)" fill="white"/>
<path d="M27.2696 0C27.2696 2.5572 21.1583 4.6541 13.6091 4.6541C6.05991 4.6541 0 2.5572 0 0" transform="translate(1 9.84799)" stroke="#373737" stroke-linecap="round" stroke-linejoin="round"/>
<path d="M13.6605 9.30821C21.205 9.30821 27.321 7.2245 27.321 4.6541C27.321 2.08371 21.205 0 13.6605 0C6.11601 0 0 2.08371 0 4.6541C0 7.2245 6.11601 9.30821 13.6605 9.30821Z" transform="translate(1 1)" fill="white" stroke="#373737" stroke-linecap="round" stroke-linejoin="round"/>
<path d="M0 0V21.1225" transform="translate(28.2697 5.65408)" stroke="#373737" stroke-linecap="round" stroke-linejoin="round"/>
<path d="M0 0V21.1225" transform="translate(1 5.65408)" stroke="#373737" stroke-linecap="round" stroke-linejoin="round"/>
<path d="M10.0656 20.0485C15.6247 20.0485 20.1312 15.5605 20.1312 10.0242C20.1312 4.488 15.6247 0 10.0656 0C4.50653 0 0 4.488 0 10.0242C0 15.5605 4.50653 20.0485 10.0656 20.0485Z" transform="translate(16.8688 18.9517)" fill="white" stroke="#6399CA"/>
<path d="M15.4772 5.77927C15.4258 5.5747 15.2204 5.42126 15.015 5.37012L10.4444 4.6541L8.28745 0.306864C8.08203 -0.102288 7.41441 -0.102288 7.20899 0.306864L5.05207 4.6541L0.481456 5.37012C0.276035 5.42126 0.0706132 5.5747 0.019258 5.77927C-0.0320972 5.98385 0.0192595 6.23957 0.173325 6.393L3.4087 9.76851L2.3816 14.218C2.33024 14.4226 2.43295 14.6783 2.58702 14.8318C2.74108 14.9852 2.99786 14.9852 3.20328 14.9341L7.7739 12.9394L12.3445 14.9341C12.3959 14.9852 12.4986 14.9852 12.6013 14.9852C12.7553 14.9852 12.8581 14.934 12.9608 14.8318C13.1148 14.6783 13.2175 14.4738 13.1662 14.218L12.1391 9.76851L15.3745 6.393C15.4772 6.23957 15.5285 5.98385 15.4772 5.77927Z" transform="translate(19.2632 20.7416)" fill="white" stroke="#6399CA"/>
</svg>
