<svg version="1.1" width="59" height="32" viewBox="0 0 59 32" fill="none" xmlns="http://www.w3.org/2000/svg">
<path d="M0 6.41379H15.7241V0H0" transform="translate(13.1552 7.87933)" stroke="#373737" stroke-miterlimit="10"/>
<path d="M0.931036 13.8621H5.84483C6.36207 13.8621 6.77586 13.4483 6.77586 12.931V0.931034C6.77586 0.413793 6.36207 0 5.84483 0H0.931036C0.413795 0 0 0.413793 0 0.931034V12.931C0 13.4483 0.413795 13.8621 0.931036 13.8621Z" transform="translate(33.8448 4.15523)" stroke="#373737" stroke-miterlimit="10"/>
<path d="M0.931034 20.1724H5.84483C6.36207 20.1724 6.77586 19.7586 6.77586 19.2414V0.931034C6.77586 0.413793 6.36207 0 5.84483 0H0.931034C0.413793 0 0 0.413793 0 0.931034V19.2414C0.0517241 19.7586 0.465517 20.1724 0.931034 20.1724Z" transform="translate(28.8276 1)" fill="white" stroke="#373737" stroke-miterlimit="10"/>
<path d="M5.7931 13.8621H0.931034C0.413793 13.8621 0 13.4483 0 12.931V0.931034C0 0.413793 0.413793 0 0.931034 0H5.84483C6.36207 0 6.77586 0.413793 6.77586 0.931034V12.931C6.72414 13.4483 6.31034 13.8621 5.7931 13.8621Z" transform="translate(1 4.15523)" stroke="#373737" stroke-miterlimit="10"/>
<path d="M5.84483 20.1724H0.931034C0.413793 20.1724 0 19.7586 0 19.2414V0.931034C0 0.413793 0.413793 0 0.931034 0H5.84483C6.36207 0 6.77586 0.413793 6.77586 0.931034V19.2414C6.77586 19.7586 6.36207 20.1724 5.84483 20.1724Z" transform="translate(5.96557 1)" fill="white" stroke="#373737" stroke-miterlimit="10"/>
<path d="M0.0517233 6.41379H15.7241V0H0" transform="translate(30.3276 17.7069)" fill="white"/>
<path d="M0.0517233 6.41379H15.7241V0H0" transform="translate(30.3276 17.7069)" stroke="#6399CA"/>
<path d="M0.931036 13.8621H5.84483C6.36207 13.8621 6.77587 13.4483 6.77587 12.931V0.931034C6.77587 0.413793 6.36207 0 5.84483 0H0.931036C0.413795 0 0 0.413793 0 0.931034V12.931C0.0517241 13.4483 0.465519 13.8621 0.931036 13.8621Z" transform="translate(51.0172 13.9828)" fill="white" stroke="#6399CA"/>
<path d="M0.931036 20.1724H5.84483C6.36207 20.1724 6.77586 19.7586 6.77586 19.2414V0.931034C6.77586 0.413793 6.36207 0 5.84483 0H0.931036C0.413795 0 0 0.413793 0 0.931034V19.2414C0 19.7586 0.413795 20.1724 0.931036 20.1724Z" transform="translate(46.0517 10.8275)" fill="white" stroke="#6399CA"/>
<path d="M5.84483 13.8621H0.931034C0.413793 13.8621 0 13.4483 0 12.931V0.931034C0 0.413793 0.413793 0 0.931034 0H5.84483C6.36207 0 6.77586 0.413793 6.77586 0.931034V12.931C6.72414 13.4483 6.31034 13.8621 5.84483 13.8621Z" transform="translate(18.1724 13.9828)" fill="white" stroke="#6399CA"/>
<path d="M5.84483 20.1724H0.931034C0.413793 20.1724 0 19.7586 0 19.2414V0.931034C0 0.413793 0.413793 0 0.931034 0H5.84483C6.36207 0 6.77586 0.413793 6.77586 0.931034V19.2414C6.72414 19.7586 6.31034 20.1724 5.84483 20.1724Z" transform="translate(23.1896 10.8275)" fill="white" stroke="#6399CA"/>
</svg>
