<svg version="1.1" width="32" height="43" viewBox="0 0 32 43" fill="none" xmlns="http://www.w3.org/2000/svg">
<path d="M26.6667 0H0V34.7097H26.6667V0Z" transform="translate(4.33331 3.90033)" fill="white" stroke="#373737" stroke-miterlimit="10"/>
<path d="M8.76973 3.84376H1.46162C0.626409 3.84376 0 3.01094 0 2.05V1.79375C0 0.768752 0.67861 0 1.46162 0H8.76973C9.60494 0 10.2314 0.832814 10.2314 1.79375V1.98594C10.2314 3.01094 9.55274 3.84376 8.76973 3.84376Z" transform="translate(12.5103 1)" fill="white" stroke="#373737" stroke-miterlimit="10"/>
<path d="M26.6667 0H0V34.7097H26.6667V0Z" transform="translate(1 7.29028)" fill="white" stroke="#373737" stroke-miterlimit="10"/>
<path d="M5.35354 2.83345V0H2.82828V2.83345H0V5.36331H2.82828V8.19675H5.35354V5.36331H8.18182V2.83345H5.35354Z" transform="translate(10.798 11.3887)" stroke="#6399CA"/>
<path d="M0 0H15.202" transform="translate(4.5354 36.4344)" stroke="#6399CA"/>
<path d="M0 0H19.697" transform="translate(4.5354 31.577)" stroke="#6399CA"/>
<path d="M0 0H19.697" transform="translate(4.5354 26.6691)" stroke="#6399CA"/>
</svg>
