<svg version="1.1" width="46" height="37" viewBox="0 0 46 37" fill="none" xmlns="http://www.w3.org/2000/svg">
<path d="M8.79034 17.6052C13.6451 17.6052 17.5807 13.6642 17.5807 8.80262C17.5807 3.94107 13.6451 0 8.79034 0C3.93557 0 0 3.94107 0 8.80262C0 13.6642 3.93557 17.6052 8.79034 17.6052Z" transform="translate(1 1)" fill="white" stroke="#6399CA" stroke-linecap="round" stroke-linejoin="round"/>
<path d="M0 0V18.2824C0 20.7974 2.02854 22.8288 4.54007 22.8288H22.7969C25.3084 22.8288 27.337 20.7974 27.337 18.2824V0H0Z" transform="translate(10.1284 10.1411)" fill="white" stroke="#373737"/>
<path d="M26 0H0V1H26V0Z" transform="translate(11 36)" fill="#6399CA"/>
<path d="M0 8.60915H5.69923C6.47201 8.60915 7.14819 7.98039 7.14819 7.15817V1.45098C7.14819 0.677124 6.52031 0 5.69923 0H0" transform="translate(37.8519 16.5739)" stroke="#373737"/>
<path d="M1.06257 0L0 4.6915L4.78156 3.57909C4.29857 1.83791 2.89791 0.435294 1.06257 0Z" transform="translate(10.9012 3.75684)" fill="white" stroke="#6399CA" stroke-linecap="round" stroke-linejoin="round"/>
<path d="M3.71899 0L4.78156 4.6915L0 3.57908C0.482986 1.83791 1.93194 0.435294 3.71899 0Z" transform="translate(3.65643 3.61172)" fill="white" stroke="#6399CA" stroke-linecap="round" stroke-linejoin="round"/>
<path d="M3.71899 4.6915L4.78156 0L0 1.11242C0.482986 2.8536 1.93194 4.25621 3.71899 4.6915Z" transform="translate(3.60809 11.3503)" fill="white" stroke="#6399CA" stroke-linecap="round" stroke-linejoin="round"/>
</svg>
