<svg version="1.1" width="52" height="47" viewBox="0 0 52 47" fill="none" xmlns="http://www.w3.org/2000/svg">
<path d="M23.8095 0H0V18.8718H23.8095V0Z" transform="translate(27.1905 1)" fill="white" stroke="#373737" stroke-miterlimit="10" stroke-linecap="round" stroke-linejoin="round"/>
<path d="M19.0476 0H0V14.1538H19.0476V0Z" transform="translate(29.5714 3.35898)" fill="white" stroke="#373737" stroke-miterlimit="10" stroke-linecap="round" stroke-linejoin="round"/>
<path d="M0 12.0355V4.94678C0 2.2439 2.2345 0 5.04063 0H24.4756C27.2298 0 29.5162 2.1929 29.5162 4.94678V12.0355" transform="translate(5.15723 11.7605)" fill="white"/>
<path d="M0 12.0355V4.94678C0 2.2439 2.23451 0 5.04063 0H24.4756C27.2298 0 29.5162 2.1929 29.5162 4.94678V12.0355" transform="translate(5.15723 11.7605)" stroke="#6399CA"/>
<path d="M37.7268 10.4035C37.7268 14.9933 33.9333 18.7162 29.2564 18.7162H8.47033C3.79346 18.7162 0 14.9933 0 10.4035V2.95787C0 1.32594 1.3511 0 3.01398 0C4.67687 0 6.02797 1.32594 6.02797 2.95787V10.4545C6.02797 11.7805 7.11924 12.8514 8.47033 12.8514H29.2564C30.6075 12.8514 31.6988 11.7805 31.6988 10.4545V2.95787C31.6988 1.32594 33.0499 0 34.7128 0C36.3757 0 37.7268 1.32594 37.7268 2.95787V10.4035Z" transform="translate(1 23.49)" fill="white" stroke="#6399CA"/>
<path d="M1.1952 0C0.571617 0 0 0.509979 0 1.17295C0.0519652 1.78492 0.519652 2.3459 1.1952 2.3459C1.81878 2.3459 2.3904 1.83592 2.3904 1.17295C2.33843 0.560977 1.87075 0 1.1952 0Z" transform="translate(15.2904 18.9512)" fill="white" stroke="#6399CA"/>
<path d="M1.1952 0C0.571617 0 0 0.509977 0 1.17295C0.0519652 1.78492 0.519652 2.3459 1.1952 2.3459C1.81878 2.3459 2.3904 1.83592 2.3904 1.17295C2.33843 0.560975 1.87075 0 1.1952 0Z" transform="translate(15.2904 24.918)" fill="white" stroke="#6399CA"/>
<path d="M1.1952 0C0.571617 0 0 0.509979 0 1.17295C0.0519652 1.78492 0.519652 2.3459 1.1952 2.3459C1.81878 2.3459 2.3904 1.83592 2.3904 1.17295C2.33843 0.560977 1.87075 0 1.1952 0Z" transform="translate(22.0459 18.9512)" fill="white" stroke="#6399CA"/>
<path d="M1.1952 0C0.571617 0 0 0.509977 0 1.17295C0.0519652 1.78492 0.519652 2.3459 1.1952 2.3459C1.81878 2.3459 2.3904 1.83592 2.3904 1.17295C2.33843 0.560975 1.87075 0 1.1952 0Z" transform="translate(22.0459 24.918)" fill="white" stroke="#6399CA"/>
<path d="M0 0V4.69179" transform="translate(29.4249 42.3083)" stroke="#6399CA"/>
<path d="M0 0V4.69179" transform="translate(10.0939 42.3082)" stroke="#6399CA"/>
</svg>
