<svg version="1.1" width="35" height="38" viewBox="0 0 35 38" fill="none" xmlns="http://www.w3.org/2000/svg">
<path d="M30.2312 14.4496V12.9887C30.2312 9.49202 29.0194 6.24286 26.8226 3.83193C24.5711 1.35714 21.4753 0 18.098 0H16.9176C13.5403 0 10.4445 1.35714 8.19298 3.83193C5.9962 6.24286 4.78445 9.49202 4.78445 12.9887V14.4496C2.1186 14.6332 -2.98223e-08 16.9004 -2.98223e-08 19.6706V21.9538C-2.98223e-08 24.8357 2.29841 27.1828 5.12061 27.1828H8.00536C8.52133 27.1828 8.94348 26.7517 8.94348 26.2248V15.3916C8.94348 14.8647 8.52133 14.4336 8.00536 14.4336H6.66071V12.9887C6.66071 6.67395 11.0699 1.91597 16.9097 1.91597H18.0902C23.9379 1.91597 28.3393 6.67395 28.3393 12.9887V14.4336H26.9946C26.4787 14.4336 26.0565 14.8647 26.0565 15.3916V26.2168C26.0565 26.7437 26.4787 27.1748 26.9946 27.1748H28.308C27.9249 32.1723 24.5555 33.3298 22.9919 33.5933C22.562 32.2441 21.319 31.2702 19.857 31.2702H17.5117C15.698 31.2702 14.2205 32.779 14.2205 34.6311C14.2205 36.4832 15.698 38 17.5117 38H19.8649C21.3815 38 22.6558 36.9462 23.0389 35.5252C23.805 35.4134 25.0167 35.134 26.2207 34.4155C27.9171 33.4017 29.9263 31.334 30.1921 27.1668C32.8736 26.9992 35 24.7239 35 21.9458V19.6626C35.0078 16.9004 32.897 14.6252 30.2312 14.4496ZM7.08286 25.2588H5.13625C3.34599 25.2588 1.89189 23.7739 1.89189 21.9458V19.6626C1.89189 17.8345 3.34599 16.3496 5.13625 16.3496H7.08286V25.2588ZM19.8649 36.084H17.5117C16.7299 36.084 16.0967 35.4374 16.0967 34.6391C16.0967 33.8408 16.7299 33.1941 17.5117 33.1941H19.8649C20.6466 33.1941 21.2799 33.8408 21.2799 34.6391C21.2799 35.4374 20.6466 36.084 19.8649 36.084ZM33.1315 21.9458C33.1315 23.7739 31.6774 25.2588 29.8872 25.2588H27.9406V16.3496H29.8872C31.6774 16.3496 33.1315 17.8345 33.1315 19.6626V21.9458Z" fill="#329746"/>
</svg>
