<svg version="1.1" width="91" height="114" viewBox="0 0 91 114" fill="none" xmlns="http://www.w3.org/2000/svg">
<path d="M162.891 74.0022C162.658 73.1903 162.071 72.5298 161.297 72.2088C154.088 69.2209 148.017 64.9907 143.254 59.6364C133.203 48.3392 131.247 31.5989 138.384 17.9807C138.801 17.1858 138.81 16.2359 138.409 15.4333C138.007 14.6303 137.245 14.074 136.365 13.9406C125.601 12.3093 118.083 15.358 113.815 18.0305L112.222 4.35862C112.132 3.57947 111.719 2.8759 111.085 2.42153C110.452 1.96716 109.658 1.80541 108.9 1.9752C99.2695 4.13675 92.2303 10.3683 88.184 14.9342L86.0083 2.29837C85.8634 1.45619 85.3423 0.728816 84.5964 0.32654C83.8492 -0.0757362 82.9613 -0.107893 82.1886 0.238752C72.9186 4.40011 66.4878 12.9682 62.7614 19.3252L60.36 4.77151C60.2205 3.92805 59.7038 3.19649 58.9595 2.78907C58.2152 2.38165 57.3263 2.34339 56.5508 2.68649C47.2538 6.79447 41.0547 18.7943 37.8574 26.6761L34.0247 16.5137C33.6932 15.6352 32.9435 14.9857 32.033 14.7889C31.1244 14.5917 30.1757 14.875 29.517 15.54C21.7471 23.3881 18.6368 31.8456 17.392 37.4221L10.8108 30.093C10.2193 29.4341 9.35085 29.1023 8.47536 29.1997C7.59987 29.2975 6.82435 29.8129 6.38979 30.5863C0.882173 40.3769 -0.717583 47.1423 0.277608 56.4407C1.45076 67.4005 6.19209 77.3494 13.4294 85.0158C11.4616 92.2551 5.54232 97.185 5.48374 97.2329C4.63181 97.9256 4.26792 99.0626 4.55763 100.128C4.84734 101.193 5.73461 101.983 6.81735 102.139C7.7546 102.274 8.68421 102.336 9.60395 102.336C17.54 102.336 24.6534 97.7111 27.6425 95.463C29.3757 96.3081 31.1667 97.0628 33.0161 97.7088V105.143C33.0161 109.886 36.6142 113.772 41.2075 113.99C43.5783 114.102 45.8396 113.254 47.5581 111.598C49.2521 109.966 50.2234 107.674 50.2234 105.31V100.46H55.747V105.143C55.747 109.885 59.3451 113.772 63.9383 113.99C66.3092 114.102 68.5705 113.253 70.289 111.598C71.983 109.966 72.9543 107.673 72.9543 105.31V100.46H78.4775V105.142C78.4775 109.885 82.0756 113.771 86.6689 113.99C89.0432 114.101 91.301 113.253 93.0195 111.597C94.7135 109.965 95.6848 107.673 95.6848 105.309V100.46H101.206V105.142C101.206 109.885 104.805 113.771 109.398 113.989C109.538 113.996 109.678 113.999 109.817 113.999C112.039 113.999 114.132 113.155 115.748 111.597C117.442 109.965 118.414 107.673 118.414 105.309V100.25C129.555 99.2716 140.434 95.1077 150.033 88.1253C158.136 82.2307 162.455 76.4332 162.493 76.3782C162.978 75.6895 163.124 74.8142 162.891 74.0022ZM13.8416 96.2525C15.2765 94.3279 16.747 91.931 17.838 89.1533C19.2598 90.3296 20.7535 91.4261 22.3097 92.4416C20.1824 93.8121 17.1771 95.4299 13.8416 96.2525ZM25.2905 87.7786C14.4764 80.7194 7.15831 69.1138 5.73811 55.8432C4.98933 48.855 5.91161 43.6608 9.35499 36.7288L17.2735 45.5474C18.0341 46.394 19.2315 46.6786 20.2874 46.2702C21.3447 45.8619 22.0457 44.8367 22.0531 43.6932C22.0537 43.5772 22.2282 33.0543 30.4909 22.7263L35.3729 35.6709C35.7935 36.7861 36.8749 37.5096 38.0541 37.4543C39.2349 37.4041 40.2511 36.5966 40.5778 35.4493C40.5943 35.3924 42.2313 29.6924 45.3875 23.3486C48.5177 17.0575 51.9995 12.4054 55.5989 9.66314L58.7223 28.5933C58.9255 29.8232 59.9165 30.7638 61.1441 30.8944C62.3714 31.0265 63.5353 30.3104 63.9871 29.1505C64.0507 28.9875 69.9588 14.0956 81.2459 7.0112L83.8383 22.0668C84.0335 23.201 84.902 24.0955 86.021 24.3145C87.1413 24.5338 88.2766 24.0312 88.877 23.053C88.9487 22.9363 95.6422 12.2167 107.144 8.22928L108.929 23.5524C109.054 24.6316 109.792 25.5374 110.817 25.8693C111.841 26.2008 112.963 25.8982 113.687 25.0937C113.752 25.0217 119.728 18.5444 131.821 19.0602C128.667 26.779 127.888 35.1464 129.345 43.0913C121.631 41.1304 115.534 43.0257 111.9 44.8518C110.108 40.1126 105.561 36.7378 100.247 36.7378C93.3729 36.7378 87.78 42.3867 87.78 49.3302C87.78 51.8378 88.5096 54.1772 89.7653 56.1419C83.0921 56.2342 74.0345 56.776 64.7623 58.5932C42.2944 62.9973 28.7561 73.0481 25.2905 87.7786ZM67.4619 105.31C67.4619 106.178 67.1194 106.986 66.4973 107.585C65.8765 108.184 65.0571 108.494 64.1959 108.45C62.5649 108.372 61.238 106.889 61.238 105.143V100.461H67.4619V105.31ZM112.922 105.31C112.922 106.178 112.58 106.986 111.958 107.585C111.337 108.184 110.516 108.492 109.656 108.45C108.025 108.372 106.698 106.889 106.698 105.143V100.452L112.922 100.433V105.31ZM115.591 94.8784L92.938 94.9138C91.4214 94.9138 90.1922 96.1557 90.1922 97.6873V105.31C90.1922 106.178 89.8496 106.986 89.2275 107.585C88.6067 108.184 87.787 108.492 86.9261 108.45C85.2952 108.372 83.9682 106.889 83.9682 105.143V97.6873C83.9682 96.1557 82.7391 94.9138 81.2224 94.9138H49.2231C48.7268 94.9138 48.1885 94.9029 47.5788 94.88C46.8246 94.854 46.1086 95.1318 45.5722 95.6544C45.0351 96.1772 44.7317 96.8979 44.7317 97.6513V105.31C44.7317 106.177 44.3892 106.985 43.7671 107.585C43.1463 108.183 42.3294 108.493 41.4657 108.449C39.8347 108.372 38.5078 106.889 38.5078 105.143V95.6907C38.5078 94.4662 37.7128 93.387 36.5521 93.0346C34.3914 92.3786 32.3103 91.5647 30.3177 90.6106C35.661 59.974 90.223 61.4207 98.8891 61.8494C99.3354 61.8986 99.7882 61.9236 100.247 61.9236C101.723 61.9236 102.936 60.7445 102.991 59.254C103.046 57.7639 101.925 56.496 100.453 56.3844C100.355 56.377 99.9572 56.3477 99.2976 56.3114C95.8991 55.8419 93.2717 52.8906 93.2717 49.3309C93.2717 45.4458 96.4008 42.2851 100.247 42.2851C104.094 42.2851 107.223 45.4458 107.223 49.3309C107.223 50.4088 107.848 51.3831 108.815 51.8388C109.782 52.2944 110.929 52.1372 111.746 51.4449C112.071 51.1696 119.616 44.9454 131.022 49.4512C132.785 54.4981 135.512 59.2325 139.169 63.343C143.703 68.4392 149.27 72.6121 155.755 75.7814C150.522 81.384 136.509 93.972 115.591 94.8784Z" transform="translate(-72)" fill="#DBDBDB"/>
<path d="M2.74585 5.54697C4.26234 5.54697 5.4917 4.30524 5.4917 2.77349C5.4917 1.24173 4.26234 0 2.74585 0C1.22936 0 0 1.24173 0 2.77349C0 4.30524 1.22936 5.54697 2.74585 5.54697Z" transform="translate(49.6133 61.8584)" fill="#DBDBDB"/>
</svg>
