<svg version="1.1" width="168" height="53" viewBox="0 0 168 53" fill="none" xmlns="http://www.w3.org/2000/svg">
<path d="M6.92458 1.49997H4.66077C4.52761 1.49997 4.42773 1.59996 4.42773 1.73329V8.53314C4.42773 8.66647 4.32786 8.76647 4.19469 8.76647H2.96292C2.82975 8.76647 2.72988 8.66647 2.72988 8.53314V1.73329C2.72988 1.59996 2.63001 1.49997 2.49684 1.49997H0.233038C0.0998727 1.49997 0 1.39997 0 1.26664V0.233327C0 0.0999967 0.0998727 0 0.233038 0H6.89128C7.02445 0 7.12432 0.0999967 7.12432 0.233327V1.26664C7.15761 1.4333 7.05774 1.49997 6.92458 1.49997Z" transform="translate(38.1646 44.1002)" fill="white"/>
<path d="M4.46103 4.86656H1.96419C1.83102 4.86656 1.73115 4.96655 1.73115 5.09988V7.13317C1.73115 7.2665 1.83102 7.3665 1.96419 7.3665H5.39318C5.52635 7.3665 5.62622 7.4665 5.62622 7.59983V8.49981C5.62622 8.63314 5.52635 8.73313 5.39318 8.73313H0.266331C0.133166 8.73313 0.0332933 8.63314 0.0332933 8.49981L0 0.233327C0 0.0999967 0.0998777 0 0.233043 0H5.22673C5.35989 0 5.45976 0.0999967 5.45976 0.233327V1.13331C5.45976 1.26664 5.35989 1.36664 5.22673 1.36664H1.93089C1.79773 1.36664 1.69785 1.46663 1.69785 1.59996V3.36659C1.69785 3.49992 1.79773 3.59992 1.93089 3.59992H4.42773C4.5609 3.59992 4.66077 3.69992 4.66077 3.83325V4.73322C4.69406 4.76656 4.59419 4.86656 4.46103 4.86656Z" transform="translate(46.7871 44.1669)" fill="white"/>
<path d="M4.69995 4.3999L7.19679 8.33314C7.29667 8.46647 7.1968 8.66647 6.99705 8.66647H5.49895C5.43236 8.66647 5.36578 8.63313 5.2992 8.56647L3.70122 5.9332C3.60134 5.79987 3.4016 5.79987 3.33502 5.9332L1.73704 8.56647C1.70374 8.63313 1.63716 8.66647 1.53729 8.66647H0.305511C0.139055 8.66647 0.0391796 8.46647 0.105762 8.33314L2.50273 4.4999C2.53603 4.43323 2.53603 4.33324 2.50273 4.26657L0.0391806 0.333326C-0.0606931 0.199995 0.0391826 0 0.23893 0H1.70374C1.77032 0 1.83691 0.0333336 1.90349 0.0999987L3.53476 2.73327C3.63463 2.8666 3.83438 2.8666 3.90096 2.73327L5.53223 0.0999987C5.56552 0.0333336 5.63211 0 5.73198 0H6.96376C7.13021 0 7.23009 0.199995 7.16351 0.333326L4.76653 4.19991C4.63337 4.23324 4.63337 4.2999 4.69995 4.3999Z" transform="translate(53.8389 44.1669)" fill="white"/>
<path d="M5.65951 8.49981V5.16655C5.65951 5.03322 5.55964 4.93322 5.42647 4.93322H1.96418C1.83102 4.93322 1.73114 5.03322 1.73114 5.16655V8.49981C1.73114 8.63314 1.63127 8.73313 1.49811 8.73313H0.266331C0.133166 8.73313 0.0332882 8.63314 0.0332882 8.49981L0 0.233327C0 0.0999967 0.0998727 0 0.233038 0H1.46481C1.59798 0 1.69785 0.0999967 1.69785 0.233327V3.26659C1.69785 3.39992 1.79773 3.49992 1.93089 3.49992H5.39318C5.52634 3.49992 5.62622 3.39992 5.62622 3.26659V0.233327C5.62622 0.0999967 5.72609 0 5.85925 0H7.09103C7.2242 0 7.32407 0.0999967 7.32407 0.233327L7.35736 8.49981C7.35736 8.63314 7.25749 8.73313 7.12432 8.73313H5.89255C5.75938 8.73313 5.65951 8.63314 5.65951 8.49981Z" transform="translate(62.5669 44.0669)" fill="white"/>
<path d="M4.29457 0C7.05774 0 8.58914 2.03329 8.58914 4.53323C8.58914 7.03317 7.05774 9.06646 4.29457 9.06646C1.5314 9.06646 0 7.03317 0 4.53323C0 2.06662 1.5314 0 4.29457 0ZM4.32786 7.73316C5.85926 7.73316 6.92458 6.56652 6.92458 4.53323C6.92458 2.49994 5.82596 1.3333 4.32786 1.3333C2.82975 1.3333 1.73115 2.46661 1.73115 4.53323C1.69786 6.59985 2.79646 7.73316 4.32786 7.73316Z" transform="translate(71.4224 43.9002)" fill="white"/>
<path d="M7.99838 8.73313H6.66673C6.53357 8.73313 6.43369 8.63314 6.43369 8.49981V1.69996C6.43369 1.56663 6.33381 1.46663 6.20065 1.46663H4.03672C3.90356 1.46663 3.83698 1.56663 3.80369 1.69996C3.60394 7.56649 2.77166 8.63313 0.541145 8.96646C0.441272 8.96646 0.341399 8.93313 0.308108 8.7998L0.00848374 7.89982C-0.0248075 7.76649 0.041775 7.63316 0.17494 7.59982C1.73963 7.2665 2.10583 6.06653 2.27229 0.233327C2.27229 0.0999967 2.37216 0 2.50533 0H7.99838C8.09826 0 8.16484 0.0666651 8.16484 0.166663L8.19812 8.56647C8.16483 8.66647 8.09826 8.73313 7.99838 8.73313Z" transform="translate(80.0029 44.0335)" fill="white"/>
<path d="M4.29458 0C7.05775 0 8.58914 2.03328 8.58914 4.53323C8.58914 7.03317 7.05775 9.06646 4.29458 9.06646C1.5314 9.06646 0 7.03317 0 4.53323C0 2.06662 1.5314 0 4.29458 0ZM4.29458 7.73316C5.82597 7.73316 6.89129 6.56651 6.89129 4.53323C6.89129 2.46661 5.79268 1.3333 4.29458 1.3333C2.76318 1.3333 1.69785 2.46661 1.69785 4.53323C1.69785 6.59985 2.76318 7.73316 4.29458 7.73316Z" transform="translate(89.6992 43.8669)" fill="white"/>
<path d="M1.49811 8.73313H0.266326C0.133161 8.73313 0.0332831 8.63314 0.0332831 8.49981L0 0.233327C0 0.0999967 0.0998676 0 0.233032 0H4.69405C4.82722 0 4.9271 0.0999967 4.9271 0.233327V1.19997C4.9271 1.33331 4.82722 1.4333 4.69405 1.4333H1.93089C1.79772 1.4333 1.69784 1.5333 1.69784 1.66663V8.53314C1.69784 8.63314 1.59798 8.73313 1.49811 8.73313Z" transform="translate(99.8198 44.0002)" fill="white"/>
<path d="M5.7261 0H7.25748C7.39065 0 7.49053 0.0999967 7.49053 0.233327L7.52382 8.49981C7.52382 8.63314 7.42394 8.73313 7.29078 8.73313H6.05901C5.92584 8.73313 5.82596 8.63314 5.82596 8.49981V3.29992C5.82596 3.06659 5.52634 2.99993 5.42647 3.19993L1.99747 8.63313C1.96418 8.6998 1.8976 8.73313 1.79772 8.73313H0.266326C0.133161 8.73313 0.0332933 8.63314 0.0332933 8.49981L0 0.233327C0 0.0999967 0.0998777 0 0.233043 0H1.46481C1.59798 0 1.69785 0.0999967 1.69785 0.233327V5.46654C1.69785 5.69987 1.99747 5.76653 2.09734 5.56654L5.52635 0.0999987C5.59293 0.0666662 5.65951 0 5.7261 0Z" transform="translate(106.245 44.0002)" fill="white"/>
<path d="M5.72609 0H7.25748C7.39065 0 7.49053 0.0999967 7.49053 0.233327L7.52381 8.49981C7.52381 8.63314 7.42394 8.73313 7.29078 8.73313H6.059C5.92583 8.73313 5.82596 8.63314 5.82596 8.49981V3.29992C5.82596 3.06659 5.52634 2.99993 5.42647 3.19993L1.99747 8.63313C1.96418 8.6998 1.8976 8.73313 1.79772 8.73313H0.266326C0.133161 8.73313 0.0332831 8.63314 0.0332831 8.49981L0 0.233327C0 0.0999967 0.0998676 0 0.233032 0H1.46481C1.59798 0 1.69784 0.0999967 1.69784 0.233327V5.46654C1.69784 5.69987 1.99747 5.76653 2.09734 5.56654L5.52634 0.0999987C5.59292 0.0333336 5.6595 0 5.72609 0Z" transform="translate(115.467 44.0002)" fill="white"/>
<path d="M1.5314 8.73313H0.266331C0.133166 8.73313 0.0332907 8.63314 0.0332907 8.49981L0 0.233328C0 0.099998 0.0998727 0 0.233038 0H2.86305C4.39444 0 5.85926 0.933312 5.85926 2.73327C5.85926 4.63323 4.42773 5.49987 2.86305 5.49987H1.93089C1.79773 5.49987 1.69785 5.59987 1.69785 5.7332V8.49981C1.76443 8.63314 1.66456 8.73313 1.5314 8.73313ZM1.76444 4.23324H2.53013C3.59545 4.23324 4.1614 3.69992 4.1614 2.7666C4.1614 1.83329 3.59545 1.36663 2.53013 1.36663H1.76444V4.23324Z" transform="translate(38.1646 12.8343)" fill="white"/>
<path d="M7.25749 0.733316L6.89129 1.69996C6.858 1.79996 6.72483 1.86662 6.62496 1.83329C5.95913 1.59996 5.26001 1.4333 4.49432 1.4333C2.92963 1.4333 1.83102 2.59994 1.83102 4.53323C1.83102 6.56652 2.99621 7.56649 4.52761 7.56649C5.3266 7.56649 6.0923 7.19984 6.79141 6.76651C6.89129 6.69985 7.02445 6.73318 7.09103 6.83318L7.55711 7.69982C7.6237 7.79982 7.5904 7.93315 7.49053 7.99982C7.02445 8.33314 5.82597 9.06646 4.36115 9.06646C1.43152 9.06646 0 7.1665 0 4.56656C0 1.93329 1.49811 0 4.36115 0C5.39318 0 6.35863 0.166662 7.12433 0.466655C7.25749 0.499988 7.29078 0.633318 7.25749 0.733316Z" transform="translate(52.9458 12.6342)" fill="white"/>
<path d="M7.25749 0.733316L6.89128 1.69996C6.85799 1.79996 6.72483 1.86662 6.62495 1.83329C5.95913 1.59996 5.26001 1.4333 4.49432 1.4333C2.92963 1.4333 1.83102 2.59994 1.83102 4.53323C1.83102 6.56652 2.99621 7.56649 4.52761 7.56649C5.3266 7.56649 6.09229 7.19984 6.79141 6.76651C6.89128 6.69985 7.02445 6.73318 7.09103 6.83318L7.55711 7.69982C7.62369 7.79982 7.5904 7.93315 7.49053 7.99982C7.02445 8.33314 5.82597 9.06646 4.36115 9.06646C1.43152 9.06646 0 7.1665 0 4.56656C0 1.93329 1.49811 0 4.36115 0C5.39318 0 6.35862 0.166662 7.15761 0.466655C7.25749 0.466655 7.29078 0.599985 7.25749 0.733316Z" transform="translate(61.3018 12.6342)" fill="white"/>
<path d="M5.12685 8.6998C5.06026 8.6998 4.99368 8.66647 4.9271 8.5998L2.56342 4.96655H1.73114V8.49981C1.73114 8.63314 1.63127 8.73313 1.49811 8.73313H0.233038C0.0998727 8.73313 0 8.63314 0 8.49981L0.0665814 0.233328C0.0665814 0.099998 0.166454 0 0.299619 0H1.56469C1.69785 0 1.79772 0.099998 1.79772 0.233328V3.49992H2.59672L5.16014 0.0999975C5.19343 0.0333323 5.26001 0 5.3266 0H6.75812C6.92458 0 7.05774 0.199996 6.92458 0.366659L4.12811 4.03324C4.06153 4.09991 4.06153 4.1999 4.12811 4.2999L6.89128 8.36648C6.99116 8.49981 6.89128 8.6998 6.72483 8.6998H5.12685Z" transform="translate(70.2241 12.7676)" fill="white"/>
<path d="M5.75938 0.0333333H7.29078C7.42394 0.0333333 7.52382 0.133331 7.52382 0.266662L7.5571 8.53314C7.5571 8.66647 7.45723 8.76647 7.32407 8.76647H6.059C5.92584 8.76647 5.82596 8.66647 5.82596 8.53314V3.33326C5.82596 3.09993 5.52634 3.03326 5.42647 3.23326L1.99747 8.63314C1.96418 8.6998 1.8976 8.73314 1.79772 8.73314H0.266326C0.133161 8.73314 0.0332882 8.63314 0.0332882 8.49981L0 0.233328C0 0.099998 0.0998727 0 0.233038 0H1.49811C1.63127 0 1.73114 0.099998 1.73114 0.233328V5.46654C1.73114 5.69987 2.03076 5.76653 2.13064 5.56654L5.55963 0.0999987C5.62622 0.0666662 5.6928 0.0333333 5.75938 0.0333333Z" transform="translate(78.6465 12.7009)" fill="white"/>
<path d="M4.46102 4.86656H1.96418C1.83102 4.86656 1.73114 4.96655 1.73114 5.09988V7.13317C1.73114 7.2665 1.83102 7.3665 1.96418 7.3665H5.39317C5.52634 7.3665 5.62622 7.4665 5.62622 7.59983V8.49981C5.62622 8.63314 5.52634 8.73313 5.39317 8.73313H0.266326C0.133161 8.73313 0.0332933 8.63314 0.0332933 8.49981L0 0.233328C0 0.099998 0.0998676 0 0.233032 0H5.22672C5.35988 0 5.45976 0.099998 5.45976 0.233328V1.13331C5.45976 1.26664 5.35988 1.36663 5.22672 1.36663H1.93089C1.79772 1.36663 1.69785 1.46663 1.69785 1.59996V3.36659C1.69785 3.49992 1.79772 3.59992 1.93089 3.59992H4.42773C4.56089 3.59992 4.66077 3.69992 4.66077 3.83325V4.73323C4.69406 4.76656 4.59419 4.86656 4.46102 4.86656Z" transform="translate(87.9683 12.7343)" fill="white"/>
<path d="M7.4448 0H6.27961C6.17973 0 6.11315 0.0666656 6.07986 0.133331L4.48188 3.69991C4.38201 3.89991 4.31543 4.09991 4.21555 4.2999L4.11568 4.4999C4.08239 4.53323 4.08239 4.5999 4.0491 4.63323L1.752 0.133331C1.71871 0.0666656 1.65213 0 1.55225 0H0.220605C0.0541487 0 -0.045727 0.166663 0.0208555 0.333326L3.08365 6.23319C3.11694 6.29986 3.11694 6.39985 3.08365 6.46652C2.38454 7.49983 1.752 7.66649 0.886429 7.53316C0.786556 7.53316 0.719973 7.59983 0.719973 7.66649V8.53314C0.719973 8.63314 0.786556 8.73313 0.886429 8.76647C2.61757 9.09979 3.71618 8.6998 5.11441 5.89987L7.64455 0.299994C7.71113 0.166663 7.61126 0 7.4448 0Z" transform="translate(44.7686 12.8343)" fill="white"/>
<path d="M5.72609 0H7.25749C7.39065 0 7.49053 0.0999967 7.49053 0.233327L7.52382 8.49981C7.52382 8.63314 7.42394 8.73313 7.29078 8.73313H6.02571C5.89255 8.73313 5.79267 8.63314 5.79267 8.49981V3.29992C5.79267 3.06659 5.49305 2.99993 5.39318 3.19993L1.96418 8.63313C1.93089 8.6998 1.86431 8.73313 1.76444 8.73313H0.23304C0.0998752 8.73313 0 8.63314 0 8.49981L0.0332907 0.233327C0.0332907 0.0999967 0.133166 0 0.266331 0H1.5314C1.66456 0 1.76444 0.0999967 1.76444 0.233327V5.46654C1.76444 5.69987 2.06406 5.76653 2.16393 5.56654L5.59292 0.0999962C5.59292 0.033331 5.65951 0 5.72609 0Z" transform="translate(38.1978 28.4339)" fill="white"/>
<path d="M5.6928 8.49981V5.16655C5.6928 5.03322 5.59293 4.93322 5.45976 4.93322H1.99747C1.86431 4.93322 1.76444 5.03322 1.76444 5.16655V8.49981C1.76444 8.63314 1.66456 8.73314 1.5314 8.73314H0.266331C0.133166 8.73314 0.0332933 8.63314 0.0332933 8.49981L0 0.23333C0 0.0999992 0.0998727 0 0.233038 0H1.49811C1.63127 0 1.73114 0.0999992 1.73114 0.23333V3.26659C1.73114 3.39992 1.83102 3.49992 1.96419 3.49992H5.42647C5.55964 3.49992 5.65951 3.39992 5.65951 3.26659V0.23333C5.65951 0.0999992 5.75938 0 5.89255 0H7.15761C7.29078 0 7.39065 0.0999992 7.39065 0.23333L7.42394 8.49981C7.42394 8.63314 7.32407 8.73314 7.19091 8.73314H5.92584C5.79267 8.73314 5.6928 8.63314 5.6928 8.49981Z" transform="translate(47.3862 28.3672)" fill="white"/>
<path d="M5.65951 8.19981V9.09979C5.65951 9.23312 5.55964 9.33312 5.42647 9.33312H4.1614C4.02824 9.33312 3.92837 9.23312 3.92837 9.09979V8.19981C3.92837 8.13315 3.86178 8.06648 3.76191 8.03315C1.5314 7.99982 0 6.93317 0 4.59989C0 2.26661 1.4981 1.19997 3.72862 1.16664C3.7952 1.16664 3.89507 1.09997 3.89507 0.999977V0.166663C3.89507 0.0666651 3.96166 0 4.06153 0H5.42647C5.52634 0 5.59293 0.0666651 5.59293 0.166663V0.999977C5.59293 1.06664 5.65951 1.13331 5.75938 1.16664C7.9899 1.19997 9.488 2.26661 9.488 4.59989C9.488 6.93317 7.9899 7.99982 5.75938 8.03315C5.72609 8.06648 5.65951 8.13315 5.65951 8.19981ZM3.96165 2.69994C3.96165 2.56661 3.86178 2.46661 3.72862 2.46661C2.53013 2.49994 1.69785 2.89993 1.69785 4.59989C1.69785 6.29985 2.53013 6.69985 3.72862 6.73318C3.86178 6.73318 3.96165 6.63318 3.96165 6.49985V2.69994ZM5.62622 2.69994V6.53318C5.62622 6.66651 5.72609 6.76651 5.85925 6.76651C7.05774 6.73318 7.89002 6.33319 7.89002 4.63323C7.89002 2.93326 7.05774 2.53328 5.85925 2.49994C5.72609 2.46661 5.62622 2.56661 5.62622 2.69994Z" transform="translate(56.2417 27.7672)" fill="white"/>
<path d="M4.29457 0C7.05774 0 8.58913 2.03329 8.58913 4.53323C8.58913 7.03317 7.05774 9.06646 4.29457 9.06646C1.53139 9.06646 0 7.03317 0 4.53323C0 2.06662 1.4981 0 4.29457 0ZM4.29457 7.73316C5.82596 7.73316 6.89128 6.56652 6.89128 4.53323C6.89128 2.46661 5.79267 1.3333 4.29457 1.3333C2.76317 1.3333 1.69785 2.46661 1.69785 4.53323C1.69785 6.59985 2.76317 7.76649 4.29457 7.73316Z" transform="translate(67.3276 28.1672)" fill="white"/>
<path d="M1.5314 8.73313H0.266331C0.133166 8.73313 0.0332933 8.63314 0.0332933 8.49981L0 0.233327C0 0.0999967 0.0998727 0 0.233038 0H2.86305C4.39444 0 5.85926 0.933311 5.85926 2.73327C5.85926 4.63323 4.42774 5.49987 2.86305 5.49987H1.93089C1.79773 5.49987 1.69785 5.59987 1.69785 5.7332V8.49981C1.76444 8.63314 1.66456 8.73313 1.5314 8.73313ZM1.76444 4.23324H2.53014C3.59545 4.23324 4.1614 3.69991 4.1614 2.7666C4.1614 1.83329 3.59545 1.36663 2.53014 1.36663H1.76444V4.23324Z" transform="translate(77.4482 28.3006)" fill="white"/>
<path d="M8.18964 8.53314L7.9566 3.23326C7.9566 2.99993 7.62369 2.93327 7.52382 3.16659L5.59292 8.5998C5.55963 8.6998 5.49306 8.73313 5.39318 8.73313H4.26127C4.1614 8.73313 4.09482 8.66647 4.06153 8.5998L2.19722 3.19993C2.13064 2.9666 1.79772 3.03326 1.76443 3.26659L1.49811 8.53314C1.49811 8.66647 1.39823 8.73313 1.26506 8.73313H0.233038C0.0998727 8.73313 0 8.63314 0 8.49981L0.366206 0.233327C0.366206 0.0999967 0.466078 0.0333321 0.599243 0.0333321H2.6633C2.76317 0.0333321 2.82976 0.0999977 2.86305 0.166663L4.69407 5.56654C4.76065 5.76653 5.02697 5.76653 5.09355 5.56654L7.02445 0.133328C7.05774 0.0333305 7.12433 0 7.2242 0H9.22167C9.35484 0 9.42142 0.0999972 9.45471 0.199995L9.85421 8.46647C9.85421 8.5998 9.75433 8.6998 9.62116 8.6998H8.3561C8.28952 8.73313 8.18964 8.66647 8.18964 8.53314Z" transform="translate(84.6055 28.2672)" fill="white"/>
<path d="M4.88137 0.133331L7.74442 8.39981C7.77771 8.53314 7.67783 8.6998 7.54467 8.6998H6.24631C6.14644 8.6998 6.07985 8.63313 6.04656 8.56647L5.44732 6.79984C5.41403 6.69985 5.34745 6.66651 5.24757 6.66651H2.35124C2.25137 6.66651 2.18478 6.73318 2.15149 6.79984L1.55225 8.56647C1.51895 8.66647 1.45238 8.6998 1.35251 8.6998H0.220596C0.0541397 8.6998 -0.0457258 8.56647 0.0208567 8.39981L2.85061 0.133331C2.8839 0.0333331 2.95048 0 3.05035 0H4.71491C4.78149 0 4.84808 0.0666656 4.88137 0.133331ZM2.95048 5.29988H4.58175C4.71491 5.29988 4.84808 5.16655 4.7815 4.99989L4.0158 2.49994C3.94922 2.29995 3.68289 2.29995 3.58301 2.49994L2.75073 4.99989C2.68415 5.16655 2.78402 5.29988 2.95048 5.29988Z" transform="translate(95.9702 28.3006)" fill="white"/>
<path d="M5.75938 0H7.29078C7.42394 0 7.52381 0.0999967 7.52381 0.233327L7.5571 8.49981C7.5571 8.63314 7.45723 8.73313 7.32407 8.73313H6.059C5.92583 8.73313 5.82596 8.63314 5.82596 8.49981V3.29992C5.82596 3.06659 5.52634 2.99993 5.42647 3.19993L1.99747 8.63313C1.96418 8.6998 1.8976 8.73313 1.79772 8.73313H0.266326C0.133161 8.73313 0.0332831 8.63314 0.0332831 8.49981L0 0.233327C0 0.0999967 0.0998676 0 0.233032 0H1.49811C1.63127 0 1.73114 0.0999967 1.73114 0.233327V5.46654C1.73114 5.69987 2.03076 5.76653 2.13064 5.56654L5.55963 0.0999962C5.62621 0.033331 5.6928 0 5.75938 0Z" transform="translate(114.967 28.2672)" fill="white"/>
<path d="M4.29457 0C7.05774 0 8.58914 2.03329 8.58914 4.53323C8.58914 7.03317 7.05774 9.06646 4.29457 9.06646C1.53139 9.06646 0 7.03317 0 4.53323C0 2.03329 1.53139 0 4.29457 0ZM4.32786 7.73316C5.85926 7.73316 6.92458 6.56652 6.92458 4.53323C6.92458 2.49995 5.82596 1.3333 4.32786 1.3333C2.79646 1.3333 1.73115 2.46661 1.73115 4.53323C1.69786 6.56652 2.79646 7.73316 4.32786 7.73316Z" transform="translate(124.022 28.0672)" fill="white"/>
<path d="M5.6928 8.49981V5.16655C5.6928 5.03322 5.59292 4.93322 5.45976 4.93322H1.99747C1.86431 4.93322 1.76443 5.03322 1.76443 5.16655V8.49981C1.76443 8.63314 1.66456 8.73314 1.5314 8.73314H0.266326C0.133161 8.73314 0.0332933 8.63314 0.0332933 8.49981L0 0.23333C0 0.0999992 0.0998676 0 0.233032 0H1.49811C1.63127 0 1.73114 0.0999992 1.73114 0.23333V3.26659C1.73114 3.39992 1.83102 3.49992 1.96418 3.49992H5.42647C5.55963 3.49992 5.65951 3.39992 5.65951 3.26659V0.23333C5.65951 0.0999992 5.75938 0 5.89254 0H7.15761C7.29078 0 7.39065 0.0999992 7.39065 0.23333L7.42394 8.49981C7.42394 8.63314 7.32407 8.73314 7.19091 8.73314H5.92583C5.79267 8.6998 5.6928 8.63314 5.6928 8.49981Z" transform="translate(134.077 28.2006)" fill="white"/>
<path d="M5.6928 8.49981V5.16655C5.6928 5.03322 5.59293 4.93322 5.45977 4.93322H1.99747C1.86431 4.93322 1.76444 5.03322 1.76444 5.16655V8.49981C1.76444 8.63314 1.66456 8.73314 1.5314 8.73314H0.266336C0.133171 8.73314 0.0332933 8.63314 0.0332933 8.49981L0 0.23333C0 0.0999992 0.0998777 0 0.233043 0H1.49811C1.63127 0 1.73115 0.0999992 1.73115 0.23333V3.26659C1.73115 3.39992 1.83103 3.49992 1.96419 3.49992H5.42648C5.55964 3.49992 5.65951 3.39992 5.65951 3.26659V0.23333C5.65951 0.0999992 5.75939 0 5.89255 0H7.15761C7.29078 0 7.39066 0.0999992 7.39066 0.23333L7.42395 8.49981C7.42395 8.63314 7.32407 8.73314 7.19091 8.73314H5.92584C5.79268 8.6998 5.6928 8.5998 5.6928 8.49981Z" transform="translate(143.132 28.2339)" fill="white"/>
<path d="M1.69785 3.09993C1.69785 3.23326 1.79773 3.33326 1.9309 3.33326H2.82975C4.36115 3.33326 5.85926 4.13324 5.85926 6.03319C5.85926 7.83315 4.36115 8.73313 2.82975 8.73313H0.266336C0.133171 8.73313 0.0332933 8.63314 0.0332933 8.49981L0 0.233327C0 0.0999967 0.0998777 0 0.233043 0H1.46482C1.59799 0 1.69785 0.0999967 1.69785 0.233327V3.09993ZM1.69785 7.4665H2.46356C3.49559 7.4665 4.06153 6.96651 4.06153 6.06653C4.06153 5.13321 3.4623 4.66656 2.46356 4.66656H1.69785V7.4665ZM8.18964 8.76647H6.92458C6.79142 8.76647 6.69154 8.66647 6.69154 8.53314L6.65825 0.266662C6.65825 0.133331 6.75812 0.0333321 6.89129 0.0333321H8.15635C8.28952 0.0333321 8.38939 0.133331 8.38939 0.266662L8.42269 8.53314C8.3894 8.66647 8.28952 8.76647 8.18964 8.76647Z" transform="translate(152.287 28.1672)" fill="white"/>
<path d="M4.46102 4.86656H1.96418C1.83102 4.86656 1.73114 4.96655 1.73114 5.09988V7.13317C1.73114 7.2665 1.83102 7.3665 1.96418 7.3665H5.39317C5.52634 7.3665 5.62622 7.4665 5.62622 7.59983V8.49981C5.62622 8.63314 5.52634 8.73314 5.39317 8.73314H0.266326C0.133161 8.73314 0.0332933 8.63314 0.0332933 8.49981L0 0.23333C0 0.0999992 0.0998676 0 0.233032 0H5.22672C5.35988 0 5.45976 0.0999992 5.45976 0.23333V1.13331C5.45976 1.26664 5.35988 1.36664 5.22672 1.36664H1.93089C1.79772 1.36664 1.69785 1.46663 1.69785 1.59996V3.36659C1.69785 3.49992 1.79772 3.59992 1.93089 3.59992H4.42773C4.56089 3.59992 4.66077 3.69992 4.66077 3.83325V4.73323C4.69406 4.76656 4.59419 4.86656 4.46102 4.86656Z" transform="translate(162.374 28.2339)" fill="white"/>
<path d="M8.42269 7.49983C8.42269 7.3665 8.3561 7.29983 8.25623 7.2665C8.18965 7.23317 8.05648 7.2665 8.05648 7.2665H7.55711C7.32407 7.2665 7.32407 7.13317 7.32407 7.03317V6.96651V0.233327C7.32407 0.0999967 7.2242 0 7.09104 0H5.85926C5.72609 0 5.62621 0.0999967 5.62621 0.233327V7.03317C5.62621 7.1665 5.52635 7.2665 5.39318 7.2665H1.9309C1.79773 7.2665 1.69785 7.1665 1.69785 7.03317V0.233327C1.69785 0.0999967 1.59798 0 1.46481 0H0.233043C0.0998777 0 0 0.0999967 0 0.233327L0.0332933 8.49981C0.0332933 8.63314 0.133171 8.73313 0.266336 8.73313H6.65825C6.75812 8.73313 6.85799 8.7998 6.85799 8.8998L7.25749 10.7664C7.29078 10.8664 7.35736 10.9331 7.45723 10.9331H8.32281C8.45597 10.9331 8.55585 10.8331 8.55585 10.6998L8.42269 7.49983Z" transform="translate(105.046 28.2672)" fill="white"/>
<path fill-rule="evenodd" clip-rule="evenodd" d="M0.058526 0.00741589C-0.307678 2.60736 0.99068 7.44058 5.485 5.60729C5.51829 5.57395 5.58487 5.60729 5.61816 5.57396C6.28399 2.50736 3.28777 -0.159247 0.058526 0.00741589Z" transform="translate(4.21533 1.66043)" fill="white"/>
<path fill-rule="evenodd" clip-rule="evenodd" d="M0 13.8009C1.09861 4.50111 6.29204 0.201205 6.29204 0.201205C6.29204 0.201205 8.3561 -0.532112 9.75433 0.801191C2.6633 4.03445 0.632533 13.5009 0.632533 13.5009C0.632533 13.5009 0.399495 14.0342 0 13.8009Z" transform="translate(9.33398)" fill="white"/>
<path fill-rule="evenodd" clip-rule="evenodd" d="M10.1183 19.4344C11.7828 19.6343 13.4807 19.5677 15.2451 19.1344C22.3029 17.3344 27.0302 11.7012 25.399 6.66798C25.1992 6.03466 24.6665 4.73469 23.0686 3.40139C20.8714 1.56809 17.5089 0.368122 15.7445 0.134794C14.1132 -0.0985337 11.916 0.0347964 12.1158 0.0681289C11.916 0.168127 11.7163 0.401455 11.7496 0.401455C16.0108 -0.0985339 17.6754 1.3681 18.4078 2.33474C20.5051 5.13468 16.4769 10.8012 10.0517 12.1012C9.58562 12.2345 8.98638 12.3678 8.38714 12.3678C3.02725 12.9345 -0.501617 9.50125 2.66105 5.13468H2.79421V5.26801C2.19497 6.23466 1.99522 7.2013 2.36143 8.13461C3.12713 10.2679 6.58941 10.8345 10.0517 9.70124C10.0517 9.70124 17.0096 7.50129 15.2451 3.30139C14.6126 1.83476 12.715 1.63476 10.9506 2.10142C10.884 2.13475 10.5511 2.53474 10.5844 2.53474C11.117 2.40141 12.0825 5.96799 8.28727 7.46796C6.32308 8.23461 4.65852 8.03461 3.9927 6.96797C3.12713 5.668 4.3589 3.70138 7.08878 1.96809C7.65473 1.56809 8.08752 1.30143 8.42043 1.13477L8.65347 0.701448C7.32182 1.13477 5.25777 2.10142 2.89409 4.2347C2.49459 4.60136 -0.834529 7.53463 0.197499 12.2679C1.12965 16.3344 5.09131 19.0344 10.1183 19.4344Z" transform="translate(1.979 8.0329)" fill="white"/>
<path fill-rule="evenodd" clip-rule="evenodd" d="M30.3408 2.06662C30.2409 1.59996 30.1077 1.13331 29.908 0.699985C29.908 0.566654 29.675 0.599987 29.675 0.699985C29.9746 6.09986 24.648 10.9331 18.023 12.6664C15.959 13.1997 13.7617 13.2997 11.7976 12.9997C6.13806 12.1664 0.411966 8.36648 1.21096 0C0.312092 2.13328 -0.153985 4.53323 0.0457624 7.06651C0.411966 13.9663 5.57211 19.5662 11.964 20.8329C13.2291 21.1329 14.9935 21.2995 16.3585 21.2328C18.8886 21.0329 21.3521 20.3995 23.3829 19.0996C33.1372 12.8997 30.3408 2.06662 30.3408 2.06662Z" transform="translate(0 17.5341)" fill="white"/>
</svg>
