<svg version="1.1" width="180" id="icon-logo" height="53" viewBox="0 0 180 53" xmlns="http://www.w3.org/2000/svg">
	 <style type="text/css">
	    <![CDATA[
	    #icon-logo path { fill: #41688C; }
	    ]]>
	  </style>
<path d="M3.03677 -2.67514e-07C3.743 -2.67514e-07 4.30798 0.0701277 4.80233 0.210382C5.29669 0.350636 5.6498 0.561018 5.93229 0.841526C6.21478 1.12204 6.42665 1.40254 6.5679 1.75318C6.70914 2.10382 6.77977 2.52458 6.77977 2.94534C6.77977 3.43623 6.70914 3.85699 6.5679 4.20763C6.42665 4.62839 6.21479 4.9089 5.86167 5.25954C5.57918 5.54005 5.15545 5.75043 4.66109 5.96081C4.16673 6.10106 3.60175 6.24132 2.89552 6.24132C2.75428 6.24132 2.61303 6.24132 2.40117 6.24132C2.25992 6.24132 2.11868 6.24132 1.90681 6.17119V8.62564C1.90681 8.90615 1.83619 9.04641 1.76556 9.04641C1.69494 9.11653 1.48307 9.11653 1.27121 9.11653H0.635602C0.423734 9.11653 0.211869 9.11653 0.141246 9.04641C0.0706236 8.97628 5.38807e-07 8.83603 5.38807e-07 8.62564V0.561018C5.38807e-07 0.280509 0.0706236 0.140255 0.141246 0.140255C0.211869 0.0701274 0.423734 0.0701272 0.635602 0.0701272L3.03677 -2.67514e-07ZM2.75428 4.55827C3.17801 4.55827 3.46051 4.48814 3.743 4.41801C4.02549 4.34789 4.23735 4.20763 4.3786 4.06738C4.51985 3.92712 4.66109 3.78687 4.73171 3.57649C4.80233 3.3661 4.80233 3.22585 4.80233 2.94534C4.80233 2.52458 4.66109 2.17394 4.3786 1.96356C4.09611 1.75318 3.60175 1.61293 2.96615 1.61293H2.04805V4.48814C2.1893 4.48814 2.33054 4.48814 2.47179 4.55827C2.54241 4.55827 2.61303 4.55827 2.75428 4.55827Z" transform="translate(38.2612 12.5367)" fill="currentColor"/>
<path d="M5.60843 5.89068C5.39656 6.4517 5.1847 6.87246 4.97283 7.29323C4.76096 7.71399 4.61972 7.9945 4.40785 8.27501C4.19598 8.55552 3.98412 8.69577 3.70163 8.83603C3.41914 8.97628 3.13664 9.04641 2.78353 9.04641C2.50104 9.04641 2.21855 9.04641 2.00668 8.97628C1.79482 8.90615 1.58295 8.90615 1.4417 8.83603C1.37108 8.7659 1.22984 8.69577 1.15922 8.62564C1.08859 8.55552 1.08859 8.41526 1.15922 8.20488L1.37108 7.57373C1.4417 7.43348 1.51233 7.29323 1.51233 7.2231C1.58295 7.15297 1.7242 7.15297 1.86544 7.2231C1.93606 7.2231 2.00668 7.29323 2.14793 7.29323C2.28917 7.29323 2.43042 7.36335 2.50104 7.36335C2.71291 7.36335 2.85416 7.29323 2.9954 7.2231C3.13665 7.08284 3.20727 6.94259 3.27789 6.66208L0.0998775 0.701272C0.029255 0.561018 -0.0413719 0.350636 0.0292507 0.210381C0.0292507 0.0701269 0.1705 2.67514e-07 0.45299 2.67514e-07H1.58295C1.72419 2.67514e-07 1.86544 5.32938e-07 1.93606 0.0701277C2.00669 0.140255 2.07731 0.210382 2.21855 0.420764L4.33723 4.97903L5.74968 0.420764C5.8203 0.280509 5.89092 0.140255 5.96154 0.0701277C6.03217 5.32938e-07 6.17341 2.67514e-07 6.31466 2.67514e-07H7.30337C7.44462 2.67514e-07 7.51524 5.32938e-07 7.58587 0.0701277C7.65649 0.140255 7.72711 0.140254 7.72711 0.210381C7.72711 0.280508 7.72711 0.350636 7.72711 0.420764C7.72711 0.490891 7.65649 0.561017 7.65649 0.631145L5.60843 5.89068Z" transform="translate(45.2939 12.6769)" fill="currentColor"/>
<path d="M7.98035 1.61293C7.98035 1.75318 7.98035 1.89343 7.90973 2.03369C7.8391 2.17394 7.76848 2.3142 7.69786 2.38432C7.62723 2.45445 7.48599 2.45445 7.34474 2.38432C6.92101 2.17394 6.49728 2.03369 6.14416 1.89343C5.79105 1.82331 5.36731 1.75318 4.94358 1.75318C4.51984 1.75318 4.16673 1.82331 3.81362 1.96356C3.4605 2.10382 3.17802 2.24407 2.89553 2.52458C2.61304 2.73496 2.47179 3.0856 2.25992 3.43623C2.11868 3.78687 2.04805 4.27776 2.04805 4.76865C2.04805 5.32967 2.11868 5.75043 2.25992 6.17119C2.40117 6.59196 2.61304 6.87246 2.89553 7.15297C3.17802 7.43348 3.46051 7.57374 3.743 7.71399C4.09611 7.85424 4.44922 7.92437 4.80233 7.92437C5.22607 7.92437 5.64981 7.85424 6.07354 7.78412C6.49728 7.71399 6.92101 7.57374 7.27412 7.36335C7.34475 7.29323 7.48599 7.29323 7.55661 7.29323C7.62724 7.29323 7.69786 7.36335 7.76848 7.50361L8.05097 8.06463C8.12159 8.20488 8.12159 8.34513 8.12159 8.41526C8.05097 8.55552 7.98035 8.62564 7.90973 8.69577C7.41537 8.97628 6.85039 9.25679 6.28541 9.32692C5.72043 9.46717 5.22607 9.46717 4.66109 9.46717C4.02549 9.46717 3.38988 9.39704 2.8249 9.18666C2.25992 8.97628 1.76556 8.69577 1.34183 8.27501C0.918092 7.85425 0.635601 7.36335 0.353111 6.80234C0.141243 6.17119 -2.15523e-06 5.46992 -2.15523e-06 4.69852C-2.15523e-06 3.99725 0.0706215 3.3661 0.282489 2.80509C0.494357 2.24407 0.776849 1.75318 1.20058 1.33242C1.62432 0.911653 2.11868 0.561017 2.68366 0.350636C3.24864 0.140254 3.95486 -2.67514e-07 4.73171 -2.67514e-07C5.08483 -2.67514e-07 5.36732 0 5.79105 0.0701272C6.14416 0.140254 6.49728 0.210381 6.77977 0.280508C7.06226 0.420763 7.34475 0.561017 7.55661 0.701272C7.90973 1.05191 7.98035 1.33242 7.98035 1.61293Z" transform="translate(53.4443 12.186)" fill="currentColor"/>
<path d="M7.98035 1.61293C7.98035 1.75318 7.98035 1.89343 7.90973 2.03369C7.83911 2.17394 7.76848 2.3142 7.69786 2.38432C7.62724 2.45445 7.48599 2.45445 7.34475 2.38432C6.92101 2.17394 6.49728 2.03369 6.14416 1.89343C5.79105 1.82331 5.36731 1.75318 4.94358 1.75318C4.51984 1.75318 4.16673 1.82331 3.81362 1.96356C3.46051 2.10382 3.17801 2.24407 2.89552 2.52458C2.61303 2.73496 2.47179 3.0856 2.25992 3.43623C2.11868 3.78687 2.04805 4.27776 2.04805 4.76865C2.04805 5.32967 2.11868 5.75043 2.25992 6.17119C2.40117 6.59196 2.61303 6.87246 2.89552 7.15297C3.17801 7.43348 3.46051 7.57374 3.743 7.71399C4.09611 7.85424 4.44922 7.92437 4.80233 7.92437C5.22607 7.92437 5.6498 7.85424 6.07354 7.78412C6.49727 7.71399 6.92101 7.57374 7.27412 7.36335C7.34475 7.29323 7.48599 7.29323 7.55661 7.29323C7.62724 7.29323 7.69786 7.36335 7.76848 7.50361L8.05097 8.06463C8.12159 8.20488 8.12159 8.34513 8.12159 8.41526C8.05097 8.55552 7.98035 8.62564 7.90973 8.69577C7.41537 8.97628 6.85039 9.25679 6.28541 9.32692C5.72043 9.46717 5.22607 9.46717 4.66109 9.46717C4.02548 9.46717 3.38988 9.39704 2.8249 9.18666C2.25992 8.97628 1.76556 8.69577 1.34183 8.27501C0.918093 7.85425 0.635602 7.36335 0.353112 6.80234C0.141244 6.17119 -1.07761e-06 5.46992 -1.07761e-06 4.69852C-1.07761e-06 3.99725 0.0706225 3.3661 0.28249 2.80509C0.494358 2.24407 0.77685 1.75318 1.20059 1.33242C1.62432 0.911653 2.11868 0.561017 2.68366 0.350636C3.24864 0.140254 3.95487 -2.67514e-07 4.73171 -2.67514e-07C5.08483 -2.67514e-07 5.36732 0 5.79105 0.0701272C6.14416 0.140254 6.49727 0.210381 6.77976 0.280508C7.06225 0.420763 7.34475 0.561017 7.55661 0.701272C7.90973 1.05191 7.98035 1.33242 7.98035 1.61293Z" transform="translate(62.2017 12.186)" fill="currentColor"/>
<path d="M1.90681 3.64661H2.96615L4.80233 0.350636C4.87296 0.210381 5.0142 0.140254 5.08482 0.0701272C5.15545 0 5.36731 -2.67514e-07 5.57918 -2.67514e-07H6.42665C6.63852 -2.67514e-07 6.77977 0.0701274 6.85039 0.140255C6.92101 0.210382 6.92101 0.420764 6.77977 0.561018L4.44922 4.34789L7.27412 8.48539C7.34474 8.62564 7.41537 8.7659 7.34474 8.90615C7.27412 9.04641 7.2035 9.11653 7.06225 9.11653H5.93229C5.79105 9.11653 5.6498 9.11653 5.50856 9.04641C5.36731 9.04641 5.29669 8.90615 5.15545 8.7659L3.17801 5.6803C3.10739 5.54005 2.96615 5.39979 2.89553 5.39979C2.75428 5.32967 2.68365 5.32967 2.47179 5.32967H1.90681V8.62564C1.90681 8.90615 1.83618 9.04641 1.76556 9.04641C1.69494 9.11653 1.48307 9.11653 1.27121 9.11653H0.635602C0.423734 9.11653 0.211869 9.11653 0.141246 9.04641C0.0706236 8.97628 -2.15523e-06 8.83603 -2.15523e-06 8.62564V0.561018C-2.15523e-06 0.280509 0.0706236 0.140255 0.141246 0.140255C0.211869 0.0701274 0.423734 0.0701272 0.635602 0.0701272H1.27121C1.48307 0.0701272 1.62432 0.0701274 1.76556 0.140255C1.83618 0.210382 1.90681 0.350636 1.90681 0.561018V3.64661Z" transform="translate(71.8066 12.5367)" fill="currentColor"/>
<path d="M2.04805 5.39979L1.90681 6.66208L2.47179 5.54005L5.79105 0.561018C5.93229 0.420764 6.00292 0.280509 6.14416 0.140255C6.28541 2.61244e-07 6.42665 -2.67514e-07 6.63852 -2.67514e-07H7.34474C7.55661 -2.67514e-07 7.76848 0 7.8391 0.0701272C7.90973 0.140254 7.98035 0.280509 7.98035 0.490891V8.55552C7.98035 8.83603 7.90973 8.97628 7.8391 8.97628C7.76848 9.04641 7.55661 9.04641 7.34474 9.04641H6.70914C6.49728 9.04641 6.35603 9.04641 6.21478 8.97628C6.14416 8.90615 6.07354 8.7659 6.07354 8.55552V3.57649C6.07354 3.57649 6.07354 3.50636 6.07354 3.36611C6.07354 3.22585 6.07354 3.0856 6.07354 2.94534C6.07354 2.80509 6.07354 2.66483 6.14416 2.52458C6.14416 2.38432 6.14416 2.3142 6.14416 2.3142L5.64981 3.43623L2.11868 8.69577C2.04806 8.7659 1.97743 8.90615 1.83619 8.97628C1.76556 9.04641 1.62432 9.11653 1.41245 9.11653H0.635601C0.423733 9.11653 0.28249 9.11653 0.141245 9.04641C0.0706225 8.97628 2.15523e-06 8.83603 2.15523e-06 8.62564V0.561018C2.15523e-06 0.280509 0.0706225 0.140255 0.141245 0.140255C0.211868 0.0701274 0.423733 0.0701272 0.635601 0.0701272H1.34183C1.55369 0.0701272 1.76556 0.0701274 1.83619 0.140255C1.90681 0.210382 1.97743 0.350636 1.97743 0.561018L2.04805 5.39979Z" transform="translate(80.3521 12.5367)" fill="currentColor"/>
<path d="M1.90681 5.18941V7.29323H5.50856C5.79105 7.29323 5.93229 7.36335 5.93229 7.43348C6.00291 7.50361 6.00292 7.71399 6.00292 7.92437V8.41526C6.00292 8.62564 6.00291 8.7659 5.93229 8.90615C5.86167 8.97628 5.72043 9.04641 5.50856 9.04641H0.635601C0.423733 9.04641 0.211868 9.04641 0.141245 8.97628C0.0706225 8.90615 2.15523e-06 8.7659 2.15523e-06 8.55552V0.490891C2.15523e-06 0.210382 0.0706225 0.0701272 0.141245 0.0701272C0.211868 0 0.423733 -2.67514e-07 0.635601 -2.67514e-07H5.50856C5.79105 -2.67514e-07 5.93229 0.0701274 5.93229 0.140255C5.93229 0.210382 6.00292 0.420763 6.00292 0.631144V1.12203C6.00292 1.33242 6.00291 1.47267 5.93229 1.61293C5.86167 1.68305 5.72043 1.75318 5.50856 1.75318H1.90681V3.64661H4.73171C5.0142 3.64661 5.15545 3.71674 5.15545 3.78687C5.22607 3.85699 5.22607 4.06738 5.22607 4.27776V4.76865C5.22607 4.97903 5.22607 5.11928 5.15545 5.25954C5.08483 5.32967 4.94358 5.39979 4.73171 5.39979L1.90681 5.18941Z" transform="translate(90.9453 12.5367)" fill="currentColor"/>
<path d="M1.90681 5.39979L1.76556 6.66208L2.33054 5.54005L5.6498 0.561017C5.79105 0.420763 5.86167 0.28051 6.00292 0.140255C6.14416 1.06588e-06 6.28541 5.35028e-07 6.49727 5.35028e-07H7.2035C7.41537 5.35028e-07 7.62723 -5.38163e-07 7.69785 0.0701266C7.76848 0.140254 7.8391 0.28051 7.8391 0.490891V8.55552C7.8391 8.83603 7.76848 8.97628 7.69785 8.97628C7.62723 9.04641 7.41537 9.0464 7.2035 9.0464H6.5679C6.35603 9.0464 6.21479 9.04641 6.07354 8.97628C5.93229 8.90615 5.93229 8.7659 5.93229 8.55552V3.57649C5.93229 3.57649 5.93229 3.50636 5.93229 3.3661C5.93229 3.22585 5.93229 3.0856 6.00292 2.94534C6.00292 2.80509 6.00292 2.66483 6.07354 2.52458C6.07354 2.38432 6.07354 2.3142 6.07354 2.3142L5.6498 3.3661L2.11868 8.62564C2.04805 8.69577 1.97743 8.83603 1.83619 8.90615C1.76556 8.97628 1.62432 9.0464 1.41245 9.0464H0.635603C0.423736 9.0464 0.28249 9.04641 0.141245 8.97628C0.0706225 8.90615 -5.38807e-07 8.7659 -5.38807e-07 8.55552V0.490891C-5.38807e-07 0.210383 0.0706225 0.0701266 0.141245 0.0701266C0.211868 -5.38163e-07 0.423736 5.35028e-07 0.635603 5.35028e-07H1.34183C1.5537 5.35028e-07 1.76556 -5.38163e-07 1.83619 0.0701266C1.90681 0.140254 1.97743 0.28051 1.97743 0.490891L1.90681 5.39979Z" transform="translate(38.3315 28.175)" fill="currentColor"/>
<path d="M7.8391 8.55552C7.8391 8.83603 7.76848 8.97628 7.69786 8.97628C7.62723 9.04641 7.41537 9.0464 7.2035 9.0464H6.49728C6.28541 9.0464 6.07354 9.04641 6.00291 8.97628C5.93229 8.90615 5.86167 8.7659 5.86167 8.55552V5.25954H1.90681V8.55552C1.90681 8.83603 1.83619 8.97628 1.76556 8.97628C1.69494 9.04641 1.48307 9.0464 1.27121 9.0464H0.635603C0.423735 9.0464 0.21187 9.04641 0.141247 8.97628C0.0706247 8.90615 -1.07761e-06 8.7659 -1.07761e-06 8.55552V0.490891C-1.07761e-06 0.210383 0.0706247 0.0701266 0.141247 0.0701266C0.21187 -5.38163e-07 0.423735 5.35028e-07 0.635603 5.35028e-07H1.27121C1.48307 5.35028e-07 1.62432 -5.38163e-07 1.76556 0.0701266C1.83619 0.140254 1.90681 0.28051 1.90681 0.490891V3.57649H5.86167V0.490891C5.86167 0.210383 5.93229 0.0701266 6.00291 0.0701266C6.07354 -5.38163e-07 6.28541 5.35028e-07 6.49728 5.35028e-07H7.2035C7.41537 5.35028e-07 7.55661 -5.38163e-07 7.69786 0.0701266C7.76848 0.140254 7.8391 0.28051 7.8391 0.490891V8.55552Z" transform="translate(48.7832 28.175)" fill="currentColor"/>
<path d="M5.86167 9.25679C5.86167 9.5373 5.79105 9.67755 5.72043 9.67755C5.64981 9.74768 5.43793 9.74768 5.22607 9.74768H4.59047C4.3786 9.74768 4.16673 9.74768 4.09611 9.67755C4.02548 9.60742 3.95486 9.46717 3.95486 9.25679V8.62564C3.24864 8.62564 2.68366 8.55552 2.1893 8.34514C1.69494 8.13475 1.2712 7.85424 0.918092 7.50361C0.564979 7.15297 0.353112 6.73221 0.211867 6.31145C0.0706215 5.82056 2.15523e-06 5.32967 2.15523e-06 4.83878C2.15523e-06 4.27776 0.0706204 3.78687 0.282488 3.29598C0.423733 2.80509 0.706228 2.45445 1.05934 2.10382C1.41245 1.75318 1.83619 1.47267 2.33054 1.26229C2.8249 1.05191 3.38988 0.981781 4.02549 0.981781V0.49089C4.02549 0.210382 4.09611 0.0701283 4.16673 0.0701283C4.23735 1.0711e-06 4.44922 -5.35028e-07 4.66109 -5.35028e-07H5.29669C5.50856 -5.35028e-07 5.6498 1.0711e-06 5.79105 0.0701283C5.86167 0.140255 5.93229 0.280509 5.93229 0.49089V0.981781C6.56789 0.981781 7.2035 1.05191 7.69786 1.26229C8.19221 1.47267 8.61595 1.75318 8.96906 2.10382C9.32218 2.45445 9.53404 2.87521 9.74591 3.29598C9.88716 3.78687 10.0284 4.20763 10.0284 4.76865C10.0284 5.32967 9.95778 5.82056 9.74591 6.31145C9.60467 6.80234 9.32218 7.15297 8.96906 7.50361C8.61595 7.85424 8.19221 8.13475 7.69786 8.27501C7.2035 8.48539 6.63852 8.55552 6.00292 8.55552V9.25679H5.86167ZM1.90681 4.76865C1.90681 5.39979 2.04805 5.96081 2.40116 6.38158C2.75428 6.80234 3.31926 7.01272 4.02549 7.08285V2.45445C3.60175 2.45445 3.24864 2.52458 2.96615 2.66483C2.68366 2.80509 2.47179 2.94534 2.33054 3.22585C2.1893 3.43623 2.04805 3.64661 1.97743 3.92712C1.97743 4.20763 1.90681 4.48814 1.90681 4.76865ZM5.79105 7.08285C6.21478 7.08285 6.5679 6.94259 6.85039 6.87246C7.13288 6.73221 7.34475 6.59196 7.48599 6.38158C7.62724 6.17119 7.76848 5.96081 7.8391 5.6803C7.90973 5.39979 7.90973 5.11929 7.90973 4.83878C7.90973 4.1375 7.76848 3.64661 7.41537 3.22585C7.06226 2.80509 6.49727 2.59471 5.79105 2.52458V7.08285Z" transform="translate(58.459 27.5439)" fill="currentColor"/>
<path d="M2.15523e-06 4.83877C2.15523e-06 4.20763 0.0706204 3.57649 0.282488 3.01547C0.494356 2.45445 0.776849 1.96356 1.12996 1.47267C1.5537 1.05191 1.97743 0.701271 2.61303 0.420763C3.17801 0.140254 3.88424 5.35028e-07 4.73171 5.35028e-07C5.50856 5.35028e-07 6.21478 0.140255 6.85039 0.350636C7.41537 0.631145 7.90972 0.981781 8.33346 1.40254C8.75719 1.82331 9.03969 2.3142 9.18093 2.94534C9.3928 3.50636 9.46342 4.1375 9.46342 4.76865C9.46342 5.39979 9.3928 6.03094 9.18093 6.59195C8.96907 7.15297 8.68657 7.64386 8.33346 8.13475C7.90972 8.55552 7.41537 8.90615 6.85039 9.18666C6.28541 9.46717 5.57918 9.60742 4.73171 9.60742C3.95486 9.60742 3.24864 9.46717 2.61303 9.25679C2.04805 8.97628 1.5537 8.62564 1.12996 8.20488C0.706227 7.78412 0.423733 7.29323 0.282488 6.66208C0.141243 6.03094 2.15523e-06 5.46992 2.15523e-06 4.83877ZM7.48599 4.76865C7.48599 4.34789 7.41537 3.92712 7.34474 3.57649C7.2035 3.22585 7.06225 2.87522 6.85039 2.59471C6.63852 2.3142 6.35603 2.10382 6.00292 1.96356C5.64981 1.82331 5.22607 1.75318 4.80233 1.75318C4.3786 1.75318 3.95486 1.82331 3.60175 1.96356C3.24864 2.10382 2.96614 2.3142 2.75428 2.59471C2.54241 2.87522 2.33054 3.22585 2.25992 3.57649C2.11868 3.92712 2.11868 4.34789 2.11868 4.76865C2.11868 5.18941 2.1893 5.61018 2.25992 5.96081C2.40117 6.31145 2.54241 6.66208 2.75428 6.94259C2.96614 7.2231 3.24864 7.43348 3.60175 7.57374C3.95486 7.71399 4.3786 7.78412 4.80233 7.78412C5.29669 7.78412 5.64981 7.71399 6.00292 7.57374C6.35603 7.43348 6.63852 7.2231 6.85039 6.94259C7.06225 6.66208 7.27412 6.31145 7.34474 5.96081C7.48599 5.61018 7.48599 5.25954 7.48599 4.76865Z" transform="translate(69.4053 27.8243)" fill="currentColor"/>
<path d="M3.03677 0C3.74299 0 4.30797 0.0701266 4.80233 0.210381C5.29669 0.350635 5.6498 0.561018 5.93229 0.841527C6.21478 1.12204 6.42665 1.40254 6.5679 1.75318C6.70914 2.10382 6.77977 2.52458 6.77977 2.94534C6.77977 3.43623 6.70914 3.85699 6.5679 4.20763C6.42665 4.62839 6.21478 4.9089 5.86167 5.25954C5.57918 5.54005 5.15545 5.75043 4.66109 5.96081C4.16673 6.10106 3.60175 6.24132 2.89553 6.24132C2.75428 6.24132 2.61303 6.24132 2.40116 6.24132C2.1893 6.24132 2.11868 6.24132 1.90681 6.17119V8.62564C1.90681 8.90615 1.83619 9.04641 1.76557 9.04641C1.69494 9.04641 1.48307 9.11653 1.2712 9.11653H0.635601C0.423733 9.11653 0.211868 9.11653 0.141245 9.04641C0.0706226 8.97628 2.15523e-06 8.83602 2.15523e-06 8.62564V0.561017C2.15523e-06 0.280508 0.0706226 0.140255 0.141245 0.140255C0.211868 0.0701277 0.423733 0.0701261 0.635601 0.0701261L3.03677 0ZM2.68366 4.55827C3.10739 4.55827 3.38988 4.48814 3.67237 4.41801C3.95486 4.34788 4.16673 4.20763 4.30798 4.06738C4.44922 3.92712 4.59047 3.78687 4.66109 3.57649C4.73171 3.3661 4.73171 3.22585 4.73171 2.94534C4.73171 2.52458 4.59047 2.17394 4.30798 1.96356C4.02549 1.75318 3.53113 1.61292 2.89553 1.61292H1.97743V4.48814C2.11868 4.48814 2.25992 4.48814 2.40116 4.55827C2.47179 4.55827 2.61303 4.55827 2.68366 4.55827Z" transform="translate(80.7051 28.0347)" fill="currentColor"/>
<path d="M4.66109 8.90615C4.51984 8.90615 4.3786 8.90615 4.23736 8.83602C4.16674 8.7659 4.09611 8.69577 4.02549 8.48539L2.11868 3.85699L1.76557 2.59471L1.90681 3.99725L1.83618 8.62564C1.83618 8.90615 1.76556 9.04641 1.69494 9.04641C1.62432 9.11653 1.48308 9.11653 1.20059 9.11653H0.635603C0.423735 9.11653 0.21187 9.11653 0.141247 9.04641C0.0706247 8.97628 -1.07761e-06 8.83602 -1.07761e-06 8.62564L0.28249 0.631146C0.28249 0.420764 0.353115 0.210382 0.49436 0.140255C0.635605 0.0701277 0.776847 0 1.05934 0H1.83618C2.04805 0 2.1893 0.0701277 2.25992 0.140255C2.33055 0.210382 2.47179 0.350636 2.54241 0.490891L5.08483 6.94259L7.34475 0.561017C7.41537 0.420763 7.48599 0.350635 7.55662 0.210381C7.62724 0.140254 7.76848 0.0701261 7.98034 0.0701261H8.96907C9.18093 0.0701261 9.3928 0.0701277 9.46342 0.140255C9.53405 0.210382 9.60467 0.350635 9.60467 0.561017L9.95778 8.62564C9.95778 8.83602 9.95778 9.04641 9.81653 9.04641C9.74591 9.11653 9.53405 9.11653 9.32218 9.11653H8.68657C8.4747 9.11653 8.26284 9.11653 8.19221 9.04641C8.12159 8.97628 8.05097 8.83602 8.05097 8.62564L7.90973 3.99725L8.05097 2.52458L7.62723 3.85699L5.86167 8.48539C5.79105 8.62564 5.72043 8.7659 5.64981 8.83602C5.57919 8.90615 5.43794 8.90615 5.22607 8.90615H4.66109Z" transform="translate(89.0381 28.0347)" fill="currentColor"/>
<path d="M8.38643 8.7659C8.45705 8.97628 8.45705 9.11653 8.38643 9.18666C8.31581 9.25679 8.17456 9.32692 7.96269 9.32692H6.97398C6.83274 9.32692 6.69149 9.32692 6.62087 9.25679C6.55025 9.18666 6.47962 9.11654 6.409 8.90615L5.84402 7.29323H2.45413L1.88915 8.90615C1.81853 9.11654 1.74791 9.18666 1.67729 9.25679C1.60667 9.32692 1.46542 9.32692 1.32418 9.32692H0.476698C0.26483 9.32692 0.123592 9.25679 0.0529691 9.18666C-0.0176535 9.11653 -0.0176535 8.97628 0.0529691 8.7659L3.37223 0.420763C3.44285 0.280508 3.51347 0.140254 3.5841 0.0701266C3.65472 -5.38163e-07 3.79596 5.35028e-07 3.93721 5.35028e-07H4.57281C4.71405 5.35028e-07 4.8553 -5.38163e-07 4.92592 0.0701266C4.99654 0.140254 5.06717 0.210381 5.13779 0.420763L8.38643 8.7659ZM4.43156 3.50636L4.07845 2.10382L3.72534 3.50636L2.94849 5.75043H5.27903L4.43156 3.50636Z" transform="translate(100.074 27.8243)" fill="currentColor"/>
<path d="M8.96906 10.6593C8.96906 10.9398 8.89844 11.0801 8.82782 11.0801C8.75719 11.1502 8.54533 11.1502 8.33346 11.1502H8.05097C7.83911 11.1502 7.62723 11.1502 7.55661 11.0801C7.48599 11.01 7.41536 10.8697 7.41536 10.6593V9.04641H0.635607C0.42374 9.04641 0.282486 9.04641 0.141241 8.97628C0.0706182 8.90615 -2.15523e-06 8.7659 -2.15523e-06 8.55551V0.49089C-2.15523e-06 0.210381 0.0706182 0.0701277 0.141241 0.0701277C0.211863 5.32938e-07 0.42374 -1.07006e-06 0.635607 -1.07006e-06H1.34183C1.5537 -1.07006e-06 1.76557 5.32938e-07 1.83619 0.0701277C1.90681 0.140255 1.97743 0.280508 1.97743 0.49089V7.36335H5.79104V0.49089C5.79104 0.210381 5.86168 0.0701277 5.9323 0.0701277C6.00292 5.32938e-07 6.21479 -1.07006e-06 6.42665 -1.07006e-06H7.06225C7.27412 -1.07006e-06 7.48599 5.32938e-07 7.55661 0.0701277C7.62723 0.140255 7.69786 0.280508 7.69786 0.49089V7.36335H8.33346C8.54533 7.36335 8.68657 7.36335 8.82782 7.43348C8.89844 7.50361 8.96906 7.64386 8.96906 7.85424V10.6593Z" transform="translate(109.59 28.1049)" fill="currentColor"/>
<path d="M2.04805 5.39979L1.90681 6.66208L2.47179 5.54005L5.79105 0.561017C5.9323 0.420763 6.00292 0.280509 6.14416 0.140255C6.28541 5.32938e-07 6.42665 0 6.63852 0H7.34474C7.55661 0 7.76848 -1.0711e-06 7.8391 0.0701261C7.90972 0.140253 7.98034 0.280509 7.98034 0.490891V8.55552C7.98034 8.83603 7.90972 8.97628 7.8391 8.97628C7.76848 9.04641 7.55661 9.04641 7.34474 9.04641H6.70915C6.49728 9.04641 6.35602 9.04641 6.21478 8.97628C6.14416 8.90615 6.07354 8.7659 6.07354 8.55552V3.57649C6.07354 3.57649 6.07354 3.50636 6.07354 3.3661C6.07354 3.22585 6.07354 3.0856 6.07354 2.94534C6.07354 2.80509 6.07354 2.66483 6.14416 2.52458C6.14416 2.38432 6.14416 2.3142 6.14416 2.3142L5.64981 3.43623L2.11868 8.69577C2.04806 8.7659 1.97743 8.90615 1.83618 8.97628C1.76556 9.04641 1.62432 9.11653 1.41246 9.11653H0.635603C0.423735 9.11653 0.282492 9.11653 0.141247 9.04641C0.0706247 8.97628 4.31046e-06 8.83602 4.31046e-06 8.62564V0.561017C4.31046e-06 0.280508 0.0706247 0.140255 0.141247 0.140255C0.21187 0.0701277 0.423735 0.0701261 0.635603 0.0701261H1.34183C1.5537 0.0701261 1.76556 0.0701277 1.83618 0.140255C1.90681 0.210382 1.97743 0.350635 1.97743 0.561017L2.04805 5.39979Z" transform="translate(120.113 28.0347)" fill="currentColor"/>
<path d="M4.31046e-06 4.83878C4.31046e-06 4.20763 0.0706225 3.57649 0.28249 3.01547C0.494358 2.45445 0.776846 1.96356 1.12996 1.47267C1.55369 1.05191 2.04806 0.701271 2.61304 0.420762C3.17802 0.140253 3.88424 0 4.73171 0C5.50856 0 6.21479 0.140254 6.85039 0.350636C7.41537 0.631145 7.90972 0.981781 8.33346 1.40254C8.75719 1.82331 9.03969 2.3142 9.18093 2.94534C9.3928 3.50636 9.46342 4.1375 9.46342 4.76865C9.46342 5.39979 9.3928 6.03094 9.18093 6.59196C8.96907 7.15297 8.68657 7.64386 8.33346 8.13475C7.90972 8.55552 7.48599 8.90615 6.85039 9.18666C6.28541 9.46717 5.57918 9.60742 4.73171 9.60742C3.95486 9.60742 3.24864 9.46717 2.61304 9.25679C2.04806 8.97628 1.55369 8.62564 1.12996 8.20488C0.706223 7.78412 0.423735 7.29323 0.28249 6.73221C0.0706225 6.03094 4.31046e-06 5.46992 4.31046e-06 4.83878ZM7.41537 4.83878C7.41537 4.41801 7.34474 3.99725 7.27412 3.64661C7.13287 3.29598 6.99163 2.94534 6.77976 2.66483C6.56789 2.38432 6.28541 2.17394 5.93229 2.03369C5.57918 1.89344 5.15545 1.82331 4.73171 1.82331C4.23735 1.82331 3.88424 1.89344 3.53113 2.03369C3.17802 2.17394 2.89552 2.38432 2.68365 2.66483C2.47178 2.94534 2.25992 3.29598 2.1893 3.64661C2.04805 3.99725 2.04805 4.41801 2.04805 4.83878C2.04805 5.25954 2.11867 5.6803 2.1893 6.03094C2.33054 6.38157 2.47178 6.73221 2.68365 7.01272C2.89552 7.29323 3.17802 7.50361 3.53113 7.64386C3.88424 7.78412 4.30798 7.85424 4.73171 7.85424C5.22607 7.85424 5.57918 7.78412 5.93229 7.64386C6.28541 7.50361 6.56789 7.29323 6.77976 7.01272C6.99163 6.73221 7.2035 6.38157 7.27412 6.03094C7.41536 5.61017 7.48599 5.25954 7.41537 4.83878Z" transform="translate(130 27.6841)" fill="currentColor"/>
<path d="M7.83911 8.55552C7.83911 8.83602 7.76848 8.97628 7.69785 8.97628C7.62723 9.04641 7.41537 9.04641 7.2035 9.04641H6.49727C6.2854 9.04641 6.07354 9.04641 6.00292 8.97628C5.93229 8.90615 5.86167 8.7659 5.86167 8.55552V5.25954H1.90681V8.55552C1.90681 8.83602 1.83619 8.97628 1.76556 8.97628C1.69494 9.04641 1.48308 9.04641 1.27121 9.04641H0.635599C0.423731 9.04641 0.211865 9.04641 0.141243 8.97628C0.0706204 8.90615 0 8.7659 0 8.55552V0.490889C0 0.21038 0.0706204 0.0701272 0.141243 0.0701272C0.211865 0 0.423731 1.07006e-06 0.635599 1.07006e-06H1.27121C1.48308 1.07006e-06 1.62432 0 1.76556 0.0701272C1.83619 0.140254 1.90681 0.280508 1.90681 0.490889V3.57649H5.86167V0.490889C5.86167 0.21038 5.93229 0.0701272 6.00292 0.0701272C6.07354 0 6.2854 1.07006e-06 6.49727 1.07006e-06H7.2035C7.41537 1.07006e-06 7.55661 0 7.69785 0.0701272C7.76848 0.140254 7.83911 0.280508 7.83911 0.490889V8.55552Z" transform="translate(141.229 27.9646)" fill="currentColor"/>
<path d="M7.8391 8.55552C7.8391 8.83602 7.76848 8.97628 7.69786 8.97628C7.62724 9.04641 7.41536 9.04641 7.2035 9.04641H6.49727C6.2854 9.04641 6.07354 9.04641 6.00291 8.97628C5.93229 8.90615 5.86167 8.7659 5.86167 8.55552V5.25954H1.9068V8.55552C1.9068 8.83602 1.83618 8.97628 1.76556 8.97628C1.69494 9.04641 1.48307 9.04641 1.27121 9.04641H0.635607C0.42374 9.04641 0.211863 9.04641 0.141241 8.97628C0.0706182 8.90615 -2.15523e-06 8.7659 -2.15523e-06 8.55552V0.490889C-2.15523e-06 0.21038 0.0706182 0.0701272 0.141241 0.0701272C0.211863 0 0.42374 1.07006e-06 0.635607 1.07006e-06H1.27121C1.48307 1.07006e-06 1.62432 0 1.76556 0.0701272C1.83618 0.140254 1.9068 0.280508 1.9068 0.490889V3.57649H5.86167V0.490889C5.86167 0.21038 5.93229 0.0701272 6.00291 0.0701272C6.07354 0 6.2854 1.07006e-06 6.49727 1.07006e-06H7.2035C7.41536 1.07006e-06 7.55662 0 7.69786 0.0701272C7.76848 0.140254 7.8391 0.280508 7.8391 0.490889V8.55552Z" transform="translate(151.61 27.9646)" fill="currentColor"/>
<path d="M0.635605 9.11653C0.423737 9.11653 0.211872 9.11653 0.141249 9.04641C0.0706268 8.97628 -4.31046e-06 8.83602 -4.31046e-06 8.62564V0.561016C-4.31046e-06 0.280508 0.0706268 0.140254 0.141249 0.140254C0.211872 0.0701272 0.423737 0.0701283 0.635605 0.0701283H1.2712C1.48307 0.0701283 1.62431 0.0701272 1.76556 0.140254C1.83618 0.210382 1.90681 0.350635 1.90681 0.561016V3.22585C2.04806 3.22585 2.25992 3.15572 2.47178 3.15572C2.68365 3.15572 2.89552 3.0856 3.03677 3.0856C3.67237 3.0856 4.23735 3.15572 4.66109 3.29598C5.08482 3.43623 5.50856 3.64661 5.79105 3.92712C6.07354 4.20763 6.28541 4.48814 6.42665 4.83878C6.5679 5.18941 6.63852 5.61018 6.63852 6.03094C6.63852 6.38157 6.5679 6.80234 6.49728 7.15297C6.35603 7.50361 6.21479 7.85425 5.9323 8.13475C5.64981 8.41526 5.29669 8.69577 4.80233 8.83603C4.30797 8.97628 3.74299 9.11653 3.03677 9.11653H0.635605ZM2.89552 4.76865C2.8249 4.76865 2.61303 4.76865 2.47178 4.76865C2.25992 4.76865 2.11867 4.83878 1.97743 4.83878V7.43348H2.89552C3.53113 7.43348 4.02548 7.29323 4.23735 7.08285C4.51984 6.80234 4.66109 6.4517 4.66109 6.03094C4.66109 5.6803 4.51984 5.39979 4.30798 5.11928C3.95486 4.9089 3.53113 4.76865 2.89552 4.76865ZM9.46342 8.55552C9.46342 8.83602 9.3928 8.97628 9.32218 8.97628C9.25156 9.0464 9.03968 9.04641 8.82781 9.04641H8.12159C7.90972 9.04641 7.69786 9.0464 7.62723 8.97628C7.55661 8.90615 7.48599 8.7659 7.48599 8.55552V0.49089C7.48599 0.210382 7.55661 0.0701283 7.62723 0.0701283C7.69786 1.0711e-06 7.90972 -5.35028e-07 8.12159 -5.35028e-07H8.7572C8.96907 -5.35028e-07 9.11031 1.0711e-06 9.25155 0.0701283C9.32218 0.140255 9.3928 0.280509 9.3928 0.49089L9.46342 8.55552Z" transform="translate(161.992 27.8945)" fill="currentColor"/>
<path d="M1.90681 5.18941V7.29323H5.50856C5.79105 7.29323 5.9323 7.36335 5.9323 7.43348C6.00292 7.50361 6.00291 7.71399 6.00291 7.92437V8.41526C6.00291 8.62564 6.00292 8.7659 5.9323 8.90615C5.86167 8.97628 5.72042 9.04641 5.50856 9.04641H0.635605C0.423737 9.04641 0.211872 9.04641 0.141249 8.97628C0.0706268 8.90615 -4.31046e-06 8.7659 -4.31046e-06 8.55552V0.490889C-4.31046e-06 0.21038 0.0706268 0.0701272 0.141249 0.0701272C0.211872 0 0.423737 1.07006e-06 0.635605 1.07006e-06H5.50856C5.79105 1.07006e-06 5.9323 0.0701261 5.9323 0.140253C5.9323 0.21038 6.00291 0.420763 6.00291 0.631144V1.12203C6.00291 1.33242 6.00292 1.47267 5.9323 1.61293C5.86167 1.68305 5.72042 1.75318 5.50856 1.75318H1.90681V3.64661H4.73171C5.0142 3.64661 5.15544 3.71674 5.15544 3.78687C5.22607 3.85699 5.22607 4.06738 5.22607 4.27776V4.76865C5.22607 4.97903 5.22607 5.11929 5.15544 5.25954C5.08482 5.32967 4.94358 5.39979 4.73171 5.39979L1.90681 5.18941Z" transform="translate(173.998 27.9646)" fill="currentColor"/>
<path d="M4.80233 1.82331V8.62564C4.80233 8.90615 4.73171 9.04641 4.66109 9.04641C4.59047 9.11654 4.3786 9.11653 4.16673 9.11653H3.53113C3.31926 9.11653 3.10739 9.11654 3.03677 9.04641C2.96615 8.97628 2.89552 8.83602 2.89552 8.62564V1.82331H0.494357C0.211867 1.82331 0.0706225 1.75318 0.0706225 1.68305C0 1.61293 1.07761e-06 1.40254 1.07761e-06 1.19216V0.631144C1.07761e-06 0.420763 0 0.21038 0.0706225 0.140253C0.141245 0.0701261 0.282489 1.07006e-06 0.494357 1.07006e-06H7.2035C7.48599 1.07006e-06 7.62724 0.0701261 7.62724 0.140253C7.69786 0.21038 7.69786 0.420763 7.69786 0.631144V1.19216C7.69786 1.40254 7.69786 1.5428 7.62724 1.68305C7.62724 1.75318 7.48599 1.82331 7.2035 1.82331H4.80233Z" transform="translate(36.9897 43.7432)" fill="currentColor"/>
<path d="M1.90681 5.25954V7.36336H5.50856C5.79105 7.36336 5.93229 7.43348 5.93229 7.50361C6.00292 7.57373 6.00292 7.78412 6.00292 7.9945V8.48539C6.00292 8.69577 6.00292 8.83602 5.93229 8.97628C5.86167 9.0464 5.72043 9.11653 5.50856 9.11653H0.635604C0.423736 9.11653 0.211865 9.11654 0.141243 9.04641C0.0706204 8.97628 0 8.83602 0 8.55552V0.490889C0 0.21038 0.0706204 0.0701272 0.141243 0.0701272C0.211865 0 0.423736 1.07006e-06 0.635604 1.07006e-06H5.50856C5.79105 1.07006e-06 5.93229 0.0701261 5.93229 0.140253C6.00292 0.21038 6.00292 0.420763 6.00292 0.631144V1.12203C6.00292 1.33242 6.00292 1.47267 5.93229 1.61292C5.86167 1.68305 5.72043 1.75318 5.50856 1.75318H1.90681V3.64661H4.73171C5.0142 3.64661 5.15545 3.71674 5.15545 3.78687C5.22607 3.857 5.22607 4.06738 5.22607 4.27776V4.62839C5.22607 4.83878 5.22607 4.97903 5.15545 5.11928C5.08483 5.18941 4.94358 5.25954 4.73171 5.25954H1.90681Z" transform="translate(45.8882 43.7432)" fill="currentColor"/>
<path d="M7.88549 8.41526C7.95612 8.48539 7.95611 8.55551 8.02674 8.62564C8.02674 8.69577 8.09736 8.7659 8.02674 8.83603C8.02674 8.90615 7.95612 8.97628 7.88549 8.97628C7.81487 9.0464 7.67362 9.0464 7.53238 9.0464H6.33179C6.19055 9.0464 6.0493 9.0464 5.97868 8.97628C5.90806 8.90615 5.76682 8.83602 5.69619 8.69577L3.86 5.89068L2.16507 8.69577C2.09444 8.83602 1.9532 8.97628 1.88258 9.0464C1.81195 9.11653 1.67071 9.11654 1.52946 9.11654H0.470125C0.258257 9.11654 0.117013 9.0464 0.0463909 8.97628C-0.0242317 8.83602 -0.0242328 8.69577 0.117012 8.48539L2.87129 4.48814L0.187634 0.701271C0.117011 0.561017 0.0463898 0.420764 0.117012 0.280509C0.117012 0.140255 0.258257 0.0701283 0.470125 0.0701283H1.74133C1.88257 0.0701283 2.02382 0.0701272 2.16507 0.140254C2.30631 0.210382 2.37693 0.28051 2.44755 0.420764L4.07187 3.01547L5.62557 0.350635C5.69619 0.210381 5.83744 0.0701283 5.90806 0.0701283C5.97868 0.0701283 6.11993 -5.35028e-07 6.26117 -5.35028e-07H7.32051C7.53238 -5.35028e-07 7.67362 0.0701261 7.74424 0.21038C7.81487 0.350635 7.74425 0.49089 7.603 0.701271L5.06059 4.27776L7.88549 8.41526Z" transform="translate(52.7632 43.6731)" fill="currentColor"/>
<path d="M7.8391 8.55552C7.8391 8.83602 7.76848 8.97628 7.69786 8.97628C7.62723 9.0464 7.41537 9.04641 7.2035 9.04641H6.49728C6.28541 9.04641 6.07354 9.0464 6.00291 8.97628C5.93229 8.90615 5.86167 8.7659 5.86167 8.55552V5.25954H1.90681V8.55552C1.90681 8.83602 1.83618 8.97628 1.76556 8.97628C1.69494 9.0464 1.48307 9.04641 1.27121 9.04641H0.635602C0.423734 9.04641 0.211869 9.0464 0.141246 8.97628C0.0706236 8.90615 -2.15523e-06 8.7659 -2.15523e-06 8.55552V0.490889C-2.15523e-06 0.21038 0.0706236 0.0701272 0.141246 0.0701272C0.211869 0 0.423734 1.07006e-06 0.635602 1.07006e-06H1.27121C1.48307 1.07006e-06 1.62432 0 1.76556 0.0701272C1.83618 0.140254 1.90681 0.280508 1.90681 0.490889V3.57649H5.86167V0.490889C5.86167 0.21038 5.93229 0.0701272 6.00291 0.0701272C6.07354 0 6.21479 1.07006e-06 6.49728 1.07006e-06H7.2035C7.41537 1.07006e-06 7.55661 0 7.69786 0.0701272C7.76848 0.140254 7.8391 0.280508 7.8391 0.490889V8.55552Z" transform="translate(62.2725 43.7432)" fill="currentColor"/>
<path d="M1.07761e-06 4.83878C1.07761e-06 4.20763 0.0706247 3.57648 0.282492 3.01547C0.49436 2.45445 0.776848 1.96356 1.12996 1.47267C1.5537 1.05191 2.04805 0.701272 2.61303 0.420763C3.17801 0.140254 3.88424 1.07006e-06 4.73171 1.07006e-06C5.50856 1.07006e-06 6.21478 0.140255 6.85039 0.350637C7.41537 0.631146 7.90972 0.981782 8.33346 1.40254C8.75719 1.82331 9.03969 2.3142 9.18093 2.94534C9.32218 3.57649 9.46342 4.1375 9.46342 4.76865C9.46342 5.39979 9.3928 6.03094 9.18093 6.59196C8.96906 7.15298 8.68657 7.64386 8.33346 8.13475C7.90972 8.55552 7.48599 8.90615 6.85039 9.18666C6.28541 9.46717 5.57918 9.60742 4.73171 9.60742C3.95486 9.60742 3.24864 9.46717 2.61303 9.25679C2.04805 8.97628 1.5537 8.62564 1.12996 8.20488C0.706225 7.78412 0.423737 7.29323 0.282492 6.66208C0.0706247 6.03094 1.07761e-06 5.46992 1.07761e-06 4.83878ZM7.48599 4.83878C7.48599 4.41801 7.41537 3.99725 7.34475 3.64661C7.2035 3.29598 7.06225 2.94534 6.85039 2.66483C6.63852 2.38432 6.35603 2.17394 6.00292 2.03369C5.64981 1.89344 5.22607 1.82331 4.80233 1.82331C4.3786 1.82331 3.95486 1.89344 3.60175 2.03369C3.24864 2.17394 2.96615 2.38432 2.75428 2.66483C2.54241 2.94534 2.33054 3.29598 2.25992 3.64661C2.11868 3.99725 2.11868 4.41801 2.11868 4.83878C2.11868 5.25954 2.1893 5.6803 2.25992 6.03094C2.40117 6.38157 2.54241 6.73221 2.75428 7.01272C2.96615 7.29323 3.24864 7.50361 3.60175 7.64387C3.95486 7.78412 4.3786 7.85424 4.80233 7.85424C5.22607 7.85424 5.64981 7.78412 6.00292 7.64387C6.35603 7.50361 6.63852 7.29323 6.85039 7.01272C7.06225 6.73221 7.27412 6.38157 7.34475 6.03094C7.41537 5.61017 7.48599 5.25954 7.48599 4.83878Z" transform="translate(71.9482 43.3926)" fill="currentColor"/>
<path d="M4.02549 1.68305C3.95486 3.01547 3.88424 4.1375 3.74299 5.04916C3.60175 6.03094 3.46051 6.80234 3.24864 7.36336C3.03677 7.9945 2.75428 8.41526 2.40116 8.69577C2.04805 8.97628 1.62432 9.11654 1.12996 9.11654C0.988717 9.11654 0.847473 9.11654 0.706228 9.11654C0.564983 9.11654 0.423737 9.0464 0.353115 9.0464C0.282492 9.0464 0.282489 9.0464 0.211867 8.97628C0.141244 8.97628 0.141246 8.90615 0.0706236 8.90615C0.0706236 8.83602 2.15523e-06 8.83603 2.15523e-06 8.7659C2.15523e-06 8.69577 2.15523e-06 8.62564 2.15523e-06 8.48539L0.141245 7.71399C0.141245 7.50361 0.211865 7.43348 0.282488 7.43348C0.353111 7.43348 0.49436 7.43348 0.706228 7.36336C0.918095 7.36336 1.12996 7.29323 1.2712 7.08285C1.41245 6.94259 1.62432 6.59195 1.69494 6.10106C1.83618 5.61017 1.90681 4.9089 2.04805 3.99725C2.11867 3.0856 2.1893 1.89343 2.1893 0.49089C2.1893 0.210382 2.25992 0.0701283 2.33054 0.0701283C2.40117 1.0711e-06 2.61304 -5.35028e-07 2.8249 -5.35028e-07H7.69786C7.90972 -5.35028e-07 8.05097 1.0711e-06 8.19222 0.0701283C8.26284 0.140255 8.33346 0.280509 8.33346 0.49089V8.55552C8.33346 8.83602 8.26284 8.97628 8.19222 8.97628C8.12159 9.0464 7.90972 9.0464 7.69786 9.0464H6.99163C6.77976 9.0464 6.5679 9.0464 6.49727 8.97628C6.42665 8.90615 6.35603 8.7659 6.35603 8.55552V1.68305H4.02549Z" transform="translate(81.7646 43.6731)" fill="currentColor"/>
<path d="M2.15523e-06 4.83877C2.15523e-06 4.20763 0.0706204 3.57649 0.282488 3.01547C0.494356 2.45445 0.776844 1.96356 1.12996 1.47267C1.55369 1.05191 2.04805 0.701273 2.61303 0.420764C3.17801 0.140255 3.88424 -5.35028e-07 4.73171 -5.35028e-07C5.50856 -5.35028e-07 6.21478 0.140254 6.85039 0.350635C7.41537 0.631144 7.90973 0.98178 8.33346 1.40254C8.7572 1.82331 9.03969 2.3142 9.18093 2.94534C9.3928 3.50636 9.46342 4.1375 9.46342 4.76865C9.46342 5.39979 9.3928 6.03094 9.18093 6.59195C8.96907 7.15297 8.68658 7.64386 8.33346 8.13475C7.90973 8.55552 7.48599 8.90615 6.85039 9.18666C6.28541 9.46717 5.57918 9.60742 4.73171 9.60742C3.95486 9.60742 3.24864 9.46717 2.61303 9.25679C2.04805 8.97628 1.55369 8.62564 1.12996 8.20488C0.706221 7.78412 0.423733 7.29323 0.282488 6.66208C0.0706204 6.10107 2.15523e-06 5.46992 2.15523e-06 4.83877ZM7.48599 4.83877C7.48599 4.41801 7.41537 3.99725 7.34474 3.64661C7.2035 3.29598 7.06225 2.94534 6.85039 2.66483C6.63852 2.38432 6.35603 2.17394 6.00292 2.03369C5.64981 1.89343 5.22607 1.82331 4.80234 1.82331C4.30798 1.82331 3.95486 1.89343 3.60175 2.03369C3.24863 2.17394 2.96614 2.38432 2.75428 2.66483C2.54241 2.94534 2.33054 3.29598 2.25992 3.64661C2.11868 3.99725 2.11868 4.41801 2.11868 4.83877C2.11868 5.25954 2.1893 5.6803 2.25992 6.03094C2.40117 6.38157 2.54241 6.73221 2.75428 7.01272C2.96614 7.29323 3.24863 7.50361 3.60175 7.64386C3.95486 7.78411 4.3786 7.85424 4.80234 7.85424C5.2967 7.85424 5.64981 7.78411 6.00292 7.64386C6.35603 7.50361 6.63852 7.29323 6.85039 7.01272C7.06225 6.73221 7.27412 6.38157 7.34474 6.03094C7.41537 5.6803 7.48599 5.25954 7.48599 4.83877Z" transform="translate(92.0049 43.3224)" fill="currentColor"/>
<path d="M1.90681 8.55552C1.90681 8.83603 1.83619 8.97628 1.76557 8.97628C1.69494 9.04641 1.48308 9.0464 1.27121 9.0464H0.635601C0.423733 9.0464 0.211868 9.04641 0.141245 8.97628C0.0706226 8.90615 2.15523e-06 8.7659 2.15523e-06 8.55552V0.490891C2.15523e-06 0.210383 0.0706226 0.0701266 0.141245 0.0701266C0.211868 -5.38163e-07 0.423733 5.35028e-07 0.635601 5.35028e-07H5.36731C5.6498 5.35028e-07 5.79105 0.0701282 5.79105 0.140255C5.86167 0.210383 5.86168 0.420762 5.86168 0.631144V1.12203C5.86168 1.33242 5.86167 1.47267 5.79105 1.61293C5.72043 1.68305 5.57918 1.75318 5.36731 1.75318H1.90681V8.55552Z" transform="translate(103.304 43.603)" fill="currentColor"/>
<path d="M2.04806 5.39979L1.9068 6.66208L2.47179 5.54004L5.79104 0.561016C5.93229 0.420762 6.00291 0.280509 6.14416 0.140254C6.2854 0 6.42666 -5.35028e-07 6.63852 -5.35028e-07H7.34475C7.55662 -5.35028e-07 7.76848 1.0711e-06 7.83911 0.0701283C7.90973 0.140255 7.98035 0.280509 7.98035 0.49089V8.55552C7.98035 8.83602 7.90973 8.97628 7.83911 8.97628C7.76848 9.0464 7.55662 9.0464 7.34475 9.0464H6.70914C6.49727 9.0464 6.35603 9.0464 6.21478 8.97628C6.14416 8.90615 6.07354 8.7659 6.07354 8.55552V3.57649C6.07354 3.57649 6.07354 3.50636 6.07354 3.3661C6.07354 3.22585 6.07354 3.0856 6.07354 2.94534C6.07354 2.80509 6.07353 2.66483 6.14416 2.52458C6.14416 2.38433 6.14416 2.3142 6.14416 2.3142L5.6498 3.43623L2.11867 8.69577C2.04805 8.76589 1.97743 8.90615 1.83619 8.97628C1.76557 9.0464 1.62432 9.11654 1.41245 9.11654H0.635607C0.42374 9.11654 0.282486 9.11653 0.141241 9.0464C0.0706182 8.97628 -2.15523e-06 8.83602 -2.15523e-06 8.62564V0.561016C-2.15523e-06 0.280508 0.0706182 0.140254 0.141241 0.140254C0.211863 0.0701272 0.42374 0.0701283 0.635607 0.0701283H1.34183C1.5537 0.0701283 1.76557 0.0701272 1.83619 0.140254C1.90681 0.210382 1.97743 0.350635 1.97743 0.561016L2.04806 5.39979Z" transform="translate(110.296 43.6731)" fill="currentColor"/>
<path d="M2.04805 5.39979L1.90681 6.66208L2.47179 5.54005L5.79105 0.561017C5.93229 0.420763 6.00291 0.28051 6.14416 0.140255C6.2854 1.06588e-06 6.42665 5.35028e-07 6.63852 5.35028e-07H7.34474C7.55661 5.35028e-07 7.76848 -5.38163e-07 7.83911 0.0701266C7.90973 0.140254 7.98035 0.28051 7.98035 0.490891V8.55552C7.98035 8.83603 7.90973 8.97628 7.83911 8.97628C7.76848 9.04641 7.55661 9.0464 7.34474 9.0464H6.70914C6.49727 9.0464 6.35603 9.04641 6.21479 8.97628C6.14416 8.90615 6.07354 8.7659 6.07354 8.55552V3.57649C6.07354 3.57649 6.07354 3.50636 6.07354 3.3661C6.07354 3.22585 6.07354 3.0856 6.07354 2.94534C6.07354 2.80509 6.07354 2.66483 6.14416 2.52458C6.14416 2.38433 6.14416 2.3142 6.14416 2.3142L5.6498 3.43623L2.11868 8.69577C2.04805 8.7659 1.97744 8.90615 1.83619 8.97628C1.76557 9.04641 1.62432 9.11653 1.41245 9.11653H0.635599C0.423731 9.11653 0.282488 9.11653 0.141243 9.0464C0.0706204 8.97628 0 8.83602 0 8.62564V0.561017C0 0.280509 0.0706204 0.140255 0.141243 0.140255C0.211865 0.0701282 0.423731 0.0701266 0.635599 0.0701266H1.34182C1.55369 0.0701266 1.76557 0.0701282 1.83619 0.140255C1.90681 0.210383 1.97743 0.350636 1.97743 0.561017L2.04805 5.39979Z" transform="translate(120.748 43.603)" fill="currentColor"/>
<path d="M0.0556404 0.0116685C-0.297472 2.53625 0.973733 7.37502 5.49358 5.55172C5.5642 5.55172 5.5642 5.55172 5.63482 5.55172C6.27042 2.46612 3.30428 -0.198713 0.0556404 0.0116685Z" transform="translate(4.16455 1.65527)" fill="currentColor"/>
<path d="M-1.34702e-07 13.6587C1.05934 4.47202 6.28541 0.194258 6.28541 0.194258C6.28541 0.194258 8.33346 -0.507014 9.74591 0.755276C2.68366 3.98113 0.635603 13.3782 0.635603 13.3782C0.635603 13.3782 0.353113 13.9392 -1.34702e-07 13.6587Z" transform="translate(9.30518)" fill="currentColor"/>
<path d="M10.236 19.1905C11.9309 19.4009 13.6258 19.3308 15.3914 18.91C22.4537 17.1568 27.1854 11.5467 25.4904 6.56762C25.2786 5.93648 24.7842 4.67419 23.1599 3.34177C20.9706 1.51847 17.5807 0.326306 15.8151 0.115924C14.1908 -0.0944572 12.0015 0.0457976 12.1428 0.0457976C11.9309 0.115925 11.719 0.396433 11.7896 0.396433C16.027 -0.0944567 17.7219 1.37821 18.4282 2.35999C20.5468 5.16508 16.5214 10.7753 10.0947 12.0375C9.60035 12.1778 9.03537 12.3181 8.39977 12.3181C3.10307 12.7388 -0.428053 9.30258 2.74996 5.02483H2.89121V5.16508C2.32623 6.14686 2.11436 7.05852 2.46747 8.0403C3.24432 10.1441 6.70482 10.7051 10.1653 9.58309C10.1653 9.58309 17.0863 7.40915 15.3208 3.27165C14.6852 1.79898 12.7784 1.5886 11.0128 2.07949C10.9422 2.07949 10.5891 2.50025 10.6597 2.50025C11.154 2.35999 12.1428 5.86635 8.32914 7.40915C6.35171 8.18055 4.65677 7.97017 4.02117 6.91826C3.1737 5.65597 4.37428 3.69241 7.12856 1.93923C7.69354 1.51847 8.11728 1.30809 8.47039 1.09771L8.68226 0.676942C7.34043 1.09771 5.29237 2.07949 2.89121 4.1833C2.46747 4.46381 -0.851788 7.33902 0.20755 12.0375C1.19627 16.1049 5.22175 18.7698 10.236 19.1905Z" transform="translate(1.82373 8.07285)" fill="currentColor"/>
<path d="M30.2801 2.10382C30.2095 1.68305 30.0682 1.19216 29.8564 0.701272C29.8564 0.561018 29.6445 0.561018 29.6445 0.701272C29.927 6.10106 24.6303 10.8697 17.9918 12.5528C15.9437 13.0437 13.7544 13.1839 11.777 12.9034C6.12718 12.0619 0.406752 8.27501 1.1836 5.35028e-07C0.265507 2.10382 -0.158228 4.48814 0.0536397 7.01272C0.406752 13.8852 5.5622 19.4252 11.9888 20.6875C13.2601 20.968 15.0256 21.1784 16.3674 21.1083C18.9099 20.8979 21.3816 20.2668 23.3591 19.0045C33.105 12.9034 30.2801 2.10382 30.2801 2.10382Z" transform="translate(0 17.3053)" fill="currentColor"/>
</svg>
