<svg version="1.1" width="35" height="26" viewBox="0 0 35 26" fill="none" xmlns="http://www.w3.org/2000/svg">
<path d="M32.8125 -1.52256e-08H2.18747C0.980004 -1.52256e-08 0 0.970671 0 2.16664V23.8334C0 25.0294 0.980004 26 2.18747 26H32.8125C34.0201 26 35 25.0293 35 23.8334V2.16664C35.0001 0.970671 34.0201 -1.52256e-08 32.8125 -1.52256e-08ZM2.18747 8.33085L10.5831 13.9837L2.18747 22.3016V8.33085ZM3.73407 23.8334L12.425 15.2252L17.5044 18.6442L22.5553 15.1992L31.266 23.8312L3.73407 23.8334ZM32.8125 22.3016L24.3819 13.9512L32.8125 8.20733V22.3016ZM32.8125 5.67236L32.7666 5.60736L17.5 16.0225L2.18747 5.71348V2.16664H32.8125V5.67236Z" fill="#D8595A"/>
</svg>
