<!-- Generated by IcoMoon.io -->
<svg version="1.1" width="30" height="30" viewBox="0 0 30 30" fill="none" xmlns="http://www.w3.org/2000/svg">
<path d="M15 30C23.2843 30 30 23.2843 30 15C30 6.71573 23.2843 0 15 0C6.71573 0 0 6.71573 0 15C0 23.2843 6.71573 30 15 30Z" fill="#D8595A"/>
<path fill-rule="evenodd" clip-rule="evenodd" d="M9.63657 11.1893H10.8139C10.8139 11.1893 11.1695 11.1503 11.3511 10.9545C11.5182 10.7749 11.5128 10.4374 11.5128 10.4374C11.5128 10.4374 11.4898 8.85768 12.223 8.62505C12.9458 8.3959 13.8739 10.1518 14.8576 10.827C15.6015 11.338 16.1667 11.2259 16.1667 11.2259L18.7971 11.1893C18.7971 11.1893 20.173 11.1046 19.5206 10.0227C19.4671 9.93419 19.1406 9.2224 17.5649 7.75978C15.9157 6.22898 16.1365 6.47658 18.1232 3.82863C19.3332 2.216 19.8169 1.23147 19.6658 0.809802C19.5217 0.408183 18.6318 0.514337 18.6318 0.514337L15.6702 0.532787C15.6702 0.532787 15.4507 0.502839 15.2878 0.600168C15.1287 0.695626 15.0263 0.918095 15.0263 0.918095C15.0263 0.918095 14.5576 2.166 13.9324 3.22727C12.6137 5.46665 12.0864 5.58484 11.8709 5.4458C11.3695 5.12172 11.4947 4.14388 11.4947 3.4492C11.4947 1.27907 11.8238 0.374225 10.8537 0.139992C10.5318 0.0621821 10.2949 0.0108434 9.47159 0.00255433C8.41486 -0.00840862 7.52045 0.00576265 7.01401 0.2539C6.6771 0.418879 6.4172 0.786539 6.57549 0.807663C6.77122 0.833867 7.21455 0.927186 7.44959 1.24725C7.75308 1.6601 7.74238 2.58741 7.74238 2.58741C7.74238 2.58741 7.91672 5.14204 7.33515 5.45943C6.93593 5.67709 6.38832 5.23269 5.21261 3.20106C4.61018 2.16038 4.15535 1.01008 4.15535 1.01008C4.15535 1.01008 4.06765 0.795095 3.91123 0.680118C3.72138 0.540808 3.45613 0.496422 3.45613 0.496422L0.641859 0.514871C0.641859 0.514871 0.219384 0.526637 0.0642986 0.710333C-0.0736742 0.873708 0.0533355 1.21169 0.0533355 1.21169C0.0533355 1.21169 2.25662 6.36642 4.75136 8.9641C7.03888 11.3457 9.63657 11.1893 9.63657 11.1893Z" transform="translate(4.79761 10.3896)" fill="white"/>
</svg>
