<!-- Generated by IcoMoon.io -->
<svg version="1.1" width="30" height="30" viewBox="0 0 30 30" fill="none" xmlns="http://www.w3.org/2000/svg">
<path d="M14.9999 0C23.2847 0 30 6.71625 30 15.0001C30 23.2848 23.2847 30 14.9999 30C6.71522 30 0 23.2847 0 15.0001C0 6.71625 6.71532 0 14.9999 0Z" fill="#D8595A"/>
<path d="M5.58748 2.85563H7.52062V0H5.24816V0.0102986C2.49469 0.107821 1.93036 1.65561 1.88062 3.28125H1.87496V4.70721H0V7.50373H1.87496V14.9999H4.70062V7.50373H7.0153L7.46244 4.70721H4.70155V3.84568C4.70155 3.29628 5.06713 2.85563 5.58748 2.85563Z" transform="translate(11.239 7.4707)" fill="white"/>
</svg>
