<!-- Generated by IcoMoon.io -->
<svg version="1.1" width="30" height="30" viewBox="0 0 30 30" fill="none" xmlns="http://www.w3.org/2000/svg">
<path d="M14.9999 0C23.2847 0 30 6.71625 30 15.0001C30 23.2848 23.2847 30 14.9999 30C6.71522 30 0 23.2847 0 15.0001C0 6.71625 6.71532 0 14.9999 0Z" fill="#D8595A"/>
<path d="M0.300279 7.19249L4.21744 8.67406L5.73361 13.6156C5.83065 13.932 6.21253 14.0489 6.46591 13.8389L8.64945 12.0351C8.87828 11.846 9.20435 11.8367 9.44343 12.0126L13.3817 14.9103C13.6528 15.1099 14.037 14.9594 14.105 14.6274L16.99 0.563873C17.0642 0.20115 16.7126 -0.101411 16.3718 0.0322037L0.295745 6.31724C-0.101027 6.47218 -0.0976273 7.04142 0.300279 7.19249ZM5.48925 7.88544L13.1448 3.10709C13.2823 3.0215 13.4239 3.21002 13.3057 3.3211L6.98772 9.27284C6.76559 9.48226 6.62236 9.76272 6.58178 10.0671L6.36666 11.6834C6.338 11.8992 6.03902 11.9205 5.98014 11.7117L5.15243 8.76425C5.05772 8.42811 5.19582 8.06894 5.48925 7.88544Z" transform="translate(6 8)" fill="white"/>
</svg>
