<svg version="1.1" width="131" height="131" viewBox="0 0 131 131" fill="none" xmlns="http://www.w3.org/2000/svg">
<path d="M65.5 131C101.675 131 131 101.675 131 65.5C131 29.3253 101.675 0 65.5 0C29.3253 0 0 29.3253 0 65.5C0 101.675 29.3253 131 65.5 131Z" fill="#6FC17C"/>
<path fill-rule="evenodd" clip-rule="evenodd" d="M70.6166 0.378902C71.2358 0.929279 71.2915 1.87739 70.7412 2.49656L28.8212 49.6566C28.2909 50.2531 27.3863 50.3299 26.763 49.8313L0.563013 28.8713C-0.0838802 28.3538 -0.188762 27.4099 0.328752 26.763C0.846266 26.1161 1.7902 26.0112 2.4371 26.5287L27.5251 46.5991L68.4989 0.50347C69.0493 -0.115704 69.9974 -0.171475 70.6166 0.378902Z" transform="translate(29.9399 37.8)" fill="white"/>
</svg>
