<svg version="1.1" width="55" height="33" viewBox="0 0 55 33" fill="none" xmlns="http://www.w3.org/2000/svg">
<path d="M8.64286 17.2611C13.4162 17.2611 17.2857 13.397 17.2857 8.63053C17.2857 3.86402 13.4162 0 8.64286 0C3.86954 0 0 3.86402 0 8.63053C0 13.397 3.86954 17.2611 8.64286 17.2611Z" transform="translate(32.7378 7.63153)" fill="#4690CD"/>
<path d="M8.64286 17.2611C13.4162 17.2611 17.2857 13.397 17.2857 8.63053C17.2857 3.86402 13.4162 0 8.64286 0C3.86954 0 0 3.86402 0 8.63053C0 13.397 3.86954 17.2611 8.64286 17.2611Z" transform="translate(5.17236 7.63153)" fill="#4690CD"/>
<path d="M52.25 7.76224C51.9226 5.21232 54.2143 2.07394 53.4286 0.439372C52.6429 -1.12981 50.9405 2.00856 45.0476 2.00856C44.0655 2.00856 10.6071 2.00856 9.69048 2.00856C3.79762 2.07394 2.09524 -1.06443 1.30952 0.504755C0.523809 2.13932 3.0119 5.47385 2.4881 8.08916C1.17857 10.0506 0 12.666 0 15.6082C0 24.8925 3.99405 31.3 27.5 31.3C51.006 31.3 55 24.8925 55 15.6082C55 12.5352 53.8214 9.98526 52.25 7.76224ZM13.8155 28.2271C7.20238 28.2271 1.89881 22.8657 1.89881 16.262C1.89881 9.65835 7.20238 4.36234 13.8155 4.36234C20.4286 4.36234 25.7976 9.72373 25.7976 16.3274C25.7976 22.8657 20.4286 28.2271 13.8155 28.2271ZM41.381 28.2271C34.7679 28.2271 29.3988 22.8657 29.3988 16.262C29.3988 9.65835 34.7679 4.29696 41.381 4.29696C47.994 4.29696 53.3631 9.65835 53.3631 16.262C53.3631 22.8657 47.994 28.2271 41.381 28.2271Z" fill="#4690CD"/>
<path d="M9.95238 7.06134C9.625 6.79981 9.29762 6.4729 8.97024 6.14598C7.39881 4.57679 6.22024 2.68069 5.56548 0.588445C5.43452 0.196148 5.04167 -2.49416e-07 4.97619 -2.49416e-07C4.91071 -2.49416e-07 4.58333 0.196148 4.45238 0.588445C3.79762 2.68069 2.61905 4.57679 1.04762 6.14598C0.720238 6.4729 0.392857 6.79981 0.0654762 7.06134C0.0654762 7.12672 9.99087e-07 7.12672 9.99087e-07 7.12672C9.99087e-07 7.12672 3.20833 13.4035 4.97619 13.4035C6.74405 13.4035 9.95238 7.12672 9.95238 7.06134C9.95238 7.12672 9.95238 7.06134 9.95238 7.06134Z" transform="translate(22.5234 19.5965)" fill="#D91E39"/>
</svg>
