<svg width="63" height="45" viewBox="0 0 63 45" fill="none" xmlns="http://www.w3.org/2000/svg">
<path fill-rule="evenodd" clip-rule="evenodd" d="M29.5793 35.5769L15.3659 24.0385L16.3262 23.4615L30.7317 35L29.5793 35.5769ZM33.0366 33.2692L33.997 32.6923L19.2073 21.3462L18.0549 22.1154L33.0366 33.2692ZM35.9177 31.3462L37.0701 30.7692L27.0823 23.6538L28.2348 22.6923L22.6646 19.2308L20.7439 20.5769L35.9177 31.3462ZM20.1677 11.5385C18.247 10.3846 16.1341 8.65385 16.1341 8.65385C18.8232 7.11538 22.2805 3.65385 22.2805 3.65385C23.625 4.80769 25.3537 6.34615 25.9299 6.73077H26.122C25.3537 7.69231 24.0091 8.84615 22.8567 9.61538C21.5122 10.7692 20.1677 11.5385 20.1677 11.5385ZM22.8567 0C10.1799 12.5 0 14.8077 0 14.8077C0 14.8077 19.2073 30.5769 30.1555 42.1154C33.6128 39.0385 33.8049 39.2308 42.064 33.8462C52.0518 27.1154 58.7744 24.8077 58.7744 24.8077C56.2774 24.0385 51.4756 21.7308 51.4756 21.7308C49.7469 25.5769 45.5213 28.8462 42.2561 29.4231L23.4329 17.5C23.4329 17.5 25.7378 13.2692 28.0427 4.42308C25.3537 2.88462 22.8567 0 22.8567 0Z" transform="translate(0 2.88464)" fill="white"/>
<path fill-rule="evenodd" clip-rule="evenodd" d="M7.10671 3.66798e-07C5.95427 3.66798e-07 1.4654e-06 0.76923 1.4654e-06 0.76923C0.576221 3.07692 0.192072 4.80769 0.192072 4.80769L7.10671 5.19231C7.49085 5.19231 9.79573 5.19231 9.79573 2.5C9.60366 0.961538 8.25915 3.66798e-07 7.10671 3.66798e-07Z" transform="translate(53.2046 11.1539)" fill="white"/>
<path fill-rule="evenodd" clip-rule="evenodd" d="M18.6311 29.6154L1.53659 19.0385C1.53659 19.0385 3.84146 13.2692 4.80183 9.42308C5.76219 5.57692 6.72256 1.92308 6.72256 1.92308L23.4329 9.23077L18.6311 29.6154ZM5.95427 0C5.95427 0 4.03354 6.92308 3.26524 10C2.49695 13.0769 -7.32701e-07 20 -7.32701e-07 20L18.247 30.9615C26.8902 26.9231 27.8506 15.3846 27.0823 11.3462C26.6982 9.03846 25.1616 8.26923 25.1616 8.26923L5.95427 0Z" transform="translate(24.7773)" fill="white"/>
<path fill-rule="evenodd" clip-rule="evenodd" d="M0.384148 -9.16995e-08L0 0.76923L13.4451 6.92308L13.6372 6.15385L0.384148 -9.16995e-08Z" transform="translate(31.6919 7.30774)" fill="white"/>
<path fill-rule="evenodd" clip-rule="evenodd" d="M0.192074 0L0 0.961538L13.6372 7.5L13.8293 6.73077L0.192074 0Z" transform="translate(30.7319 10.5769)" fill="white"/>
<path fill-rule="evenodd" clip-rule="evenodd" d="M0.768293 -3.66798e-07L-3.66351e-07 1.92308L4.22561 4.42308L4.60976 3.26923L14.0213 8.26923L14.2134 7.30769L0.768293 -3.66798e-07Z" transform="translate(29.1953 13.8461)" fill="white"/>
</svg>
