<svg width="120" height="91" viewBox="0 0 120 91" fill="none" xmlns="http://www.w3.org/2000/svg">
<path d="M0 33.3L9.2063 0L41.4283 13.5L32.222 52.2L0 33.3Z" transform="translate(51.873 3.79999)" fill="#6E6A67"/>
<path d="M0 11.7L14.7301 0L23.0157 8.1L11.0476 20.7L0 11.7Z" transform="translate(30.6987 11)" fill="#6B94A2"/>
<path d="M0 11.7L14.7301 0L45.1108 26.1L33.1427 38.7L0 11.7Z" transform="translate(30.6987 38)" fill="#947F6D"/>
<g filter="url(#filter0_d)">
<path fill-rule="evenodd" clip-rule="evenodd" d="M54.4631 64.0385L28.2925 43.2692L30.0608 42.2308L56.585 63L54.4631 64.0385ZM60.8289 59.8846L62.5972 58.8461L35.3656 38.4231L33.2437 39.8077L60.8289 59.8846ZM66.1338 56.4231L68.2557 55.3846L49.8656 42.5769L51.9875 40.8462L41.7315 34.6154L38.1949 37.0385L66.1338 56.4231ZM37.1339 20.7692C33.5974 18.6923 29.7071 15.5769 29.7071 15.5769C34.6583 12.8077 41.0241 6.57692 41.0241 6.57692C43.4997 8.65385 46.6826 11.4231 47.7436 12.1154H48.0973C46.6826 13.8462 44.2071 15.9231 42.0851 17.3077C39.6095 19.3846 37.1339 20.7692 37.1339 20.7692ZM42.0851 0C18.7438 22.5 0 26.6538 0 26.6538C0 26.6538 35.3656 55.0385 55.5241 75.8077C61.8899 70.2692 62.2435 70.6154 77.4508 60.9231C95.8409 48.8077 108.219 44.6538 108.219 44.6538C103.621 43.2692 90 37.0385 90 37.0385C86.8171 43.9615 85.0122 47.7692 79 48.8076L47.7436 29.8076C47.7436 29.8076 50.2192 25.2307 54.4631 9.30762C49.5119 6.53839 42.0851 0 42.0851 0Z" transform="translate(4 7.19238)" fill="#FCF7B5"/>
</g>
<path fill-rule="evenodd" clip-rule="evenodd" d="M17.0853 0C14.9633 0 0 2.38461 0 2.38461C1.06097 6.53846 0.353651 9.65385 0.353651 9.65385L17.0853 9.34615C17.7926 9.34615 22.0365 9.34615 22.0365 4.5C21.6828 1.73077 19.2072 0 17.0853 0Z" transform="translate(97.9634 22.0771)" fill="#9C6C13"/>
<g filter="url(#filter1_d)">
<path fill-rule="evenodd" clip-rule="evenodd" d="M34.3047 53.3077L2.82925 34.2692C2.82925 34.2692 7.07313 23.8846 8.84141 16.9615C10.6097 10.0385 12.378 3.46154 12.378 3.46154L43.1461 16.6154L34.3047 53.3077ZM10.9634 0C10.9634 0 7.42679 12.4615 6.01216 18C4.59754 23.5385 0 36 0 36L33.5974 55.7308C49.5119 48.4615 51.2802 27.6923 49.8656 20.4231C49.1582 16.2692 46.329 14.8846 46.329 14.8846L10.9634 0Z" transform="translate(49.6216 2)" fill="#C2C2B8"/>
</g>
<path fill-rule="evenodd" clip-rule="evenodd" d="M0.707316 -1.65059e-07L0 1.38461L24.756 12.4615L25.1096 11.0769L0.707316 -1.65059e-07Z" transform="translate(62.353 15.1541)" fill="white"/>
<path fill-rule="evenodd" clip-rule="evenodd" d="M0.353658 0L0 1.73077L25.1096 13.5L25.4633 12.1154L0.353658 0Z" transform="translate(60.5859 21.0385)" fill="white"/>
<path fill-rule="evenodd" clip-rule="evenodd" d="M1.41463 -6.60236e-07L-6.74546e-07 3.46154L7.78044 7.96154L8.48776 5.88461L25.8169 14.8846L26.1706 13.1538L1.41463 -6.60236e-07Z" transform="translate(57.7559 26.9229)" fill="white"/>
<defs>
<filter id="filter0_d" x="0" y="7.19238" width="116.219" height="83.8077" filterUnits="userSpaceOnUse" color-interpolation-filters="sRGB">
<feFlood flood-opacity="0" result="BackgroundImageFix"/>
<feColorMatrix in="SourceAlpha" type="matrix" values="0 0 0 0 0 0 0 0 0 0 0 0 0 0 0 0 0 0 255 0"/>
<feOffset dy="4"/>
<feGaussianBlur stdDeviation="2"/>
<feColorMatrix type="matrix" values="0 0 0 0 0 0 0 0 0 0 0 0 0 0 0 0 0 0 0.25 0"/>
<feBlend mode="normal" in2="BackgroundImageFix" result="effect1_dropShadow"/>
<feBlend mode="normal" in="SourceGraphic" in2="effect1_dropShadow" result="shape"/>
</filter>
<filter id="filter1_d" x="45.6216" y="0" width="58.2572" height="63.7308" filterUnits="userSpaceOnUse" color-interpolation-filters="sRGB">
<feFlood flood-opacity="0" result="BackgroundImageFix"/>
<feColorMatrix in="SourceAlpha" type="matrix" values="0 0 0 0 0 0 0 0 0 0 0 0 0 0 0 0 0 0 255 0"/>
<feOffset dy="2"/>
<feGaussianBlur stdDeviation="2"/>
<feColorMatrix type="matrix" values="0 0 0 0 0 0 0 0 0 0 0 0 0 0 0 0 0 0 0.55 0"/>
<feBlend mode="normal" in2="BackgroundImageFix" result="effect1_dropShadow"/>
<feBlend mode="normal" in="SourceGraphic" in2="effect1_dropShadow" result="shape"/>
</filter>
</defs>
</svg>
