<svg width="79" height="74" viewBox="0 0 79 74" fill="none" xmlns="http://www.w3.org/2000/svg">
<path d="M23.2276 33.908L2.73265 34.8122L1.36633 1.80842L19.584 0.904212L20.0395 6.78159C20.0395 7.2337 20.4949 7.6858 20.9503 7.6858L26.8711 7.2337L27.782 25.3179C28.6929 25.3179 27.782 25.3179 28.6929 25.77L27.782 5.87738C27.782 5.87738 27.782 5.42527 27.3265 5.42527L21.4058 0H20.9503L2.27721 0.452107C0.910885 0.452107 0 1.35632 0 2.71264L1.36633 34.8122C1.36633 36.1685 2.27721 37.0727 3.64354 37.0727L25.0493 36.1685C24.1384 35.2643 23.2276 34.8122 23.2276 33.908Z" transform="translate(20.335 17.4868)" fill="#555554"/>
<path d="M14.1187 2.26053C14.1187 1.80842 14.1187 1.35631 13.6633 1.35631L12.2969 0.452103C11.8415 -2.59371e-06 11.8415 0 11.3861 0C10.9306 0 10.4752 -2.59371e-06 10.4752 0.452103L8.6534 2.26053C7.74252 1.80842 6.37619 1.35631 5.46531 1.35631C2.27721 1.35631 0 4.06895 0 6.78159C0 9.94633 2.73265 12.2069 5.92075 12.2069C9.10885 12.2069 11.3861 9.49423 11.3861 6.32948V5.87738L13.6633 3.61685C13.6633 3.16474 14.1187 2.71264 14.1187 2.26053ZM12.2969 2.71263L7.28708 8.13791H6.83163H6.37619L3.64354 5.87738C3.1881 5.87738 3.1881 5.42527 3.64354 4.97316L4.09898 4.52106C4.09898 4.06895 4.55442 4.06895 5.00987 4.52106L6.83163 5.87738L10.9306 1.35631H11.3861H11.8415L12.2969 1.80842C12.7524 2.26053 12.7524 2.26053 12.2969 2.71263Z" transform="translate(41.2856 41.4484)" fill="#CD4550"/>
<path d="M10.6507 3.78639L5.64081 5.14271L6.5517 0.16954C4.72993 -0.282566 2.90816 0.16954 1.54183 1.52586C-0.735378 3.78639 -0.279936 7.40324 1.54183 9.21166C3.81904 11.0201 7.46258 11.0201 9.28435 8.75956C10.6507 7.40324 11.1061 5.59481 10.6507 3.78639Z" transform="translate(25.1699 23.1947)" fill="#CD4550"/>
<path d="M3.1881 0.904211C2.73265 0.452105 1.82177 0 0.910884 0L0 4.97317L5.00987 3.61685C4.55442 2.71264 4.09898 1.80842 3.1881 0.904211Z" transform="translate(32.1768 22.0079)" fill="#CD4550"/>
<path d="M0.910884 1.80842H4.55442C5.00987 1.80842 5.46531 1.35632 5.46531 0.904211C5.46531 0.452105 5.00987 0 4.55442 0H0.910884C0.455441 0 0 0.452105 0 0.904211C0 1.35632 0.455441 1.80842 0.910884 1.80842Z" transform="translate(26.7104 37.8315)" fill="#555554"/>
<path d="M9.56429 0L0.910884 0.452108C0.455441 0.452108 0 0.904213 0 1.35632C0 1.80843 0.455441 2.26053 0.910884 2.26053L9.56429 1.80843C10.0197 1.80843 10.4752 1.35632 10.4752 0.904216C10.4752 0.45211 10.0197 0 9.56429 0Z" transform="translate(26.7104 40.5441)" fill="#555554"/>
<path d="M6.83163 0L0.910884 0.452108C0.455441 0.452108 0 0.904213 0 1.35632C0 1.80843 0.455441 2.26053 0.910884 2.26053L6.83163 1.80843C7.28708 1.80843 7.74252 1.35632 7.74252 0.904211C7.74252 0.452105 7.74252 0 6.83163 0Z" transform="translate(26.7104 44.1612)" fill="#555554"/>
<path d="M77.7196 66.7663L66.789 58.1763C77.7196 43.2568 75.4424 22.0078 61.3236 9.34884C53.1257 2.11514 42.1951 -1.0496 31.2645 0.306715C23.0665 2.11514 15.324 6.18409 9.40323 12.5136C-4.26004 27.4331 -2.89371 50.4905 12.5913 64.0537C20.7893 71.2874 31.7199 74.4521 42.6505 73.0958C49.4822 72.1916 56.3138 69.0268 61.7791 64.0537L72.7097 73.0958C73.6206 74 74.5315 74 75.8978 74C76.8087 74 77.7196 73.5479 78.175 72.6437C79.5413 70.8353 79.0859 68.1226 77.7196 66.7663ZM41.2842 64.5058C33.0862 65.8621 24.4328 63.1495 18.5121 57.7242C6.67058 47.3257 5.75969 29.6936 16.2349 18.391C20.7893 13.4178 26.71 10.253 33.0862 9.34884C41.2842 7.99252 49.9376 10.7052 55.8583 16.1304C67.2444 26.5289 68.6107 44.161 58.1356 55.4637C53.5811 60.4368 47.6604 63.6016 41.2842 64.5058Z" fill="#555554"/>
</svg>
