<svg width="64" height="60" viewBox="0 0 64 60" fill="none" xmlns="http://www.w3.org/2000/svg">
<path d="M18.8173 27.4929L2.2138 28.2261L1.1069 1.46629L15.8655 0.733145L16.2345 5.49859C16.2345 5.86516 16.6035 6.23173 16.9724 6.23173L21.769 5.86516L22.5069 20.5281C23.2449 20.5281 22.5069 20.5281 23.2449 20.8946L22.5069 4.76544C22.5069 4.76544 22.5069 4.39887 22.138 4.39887L17.3414 0H16.9724L1.84483 0.366573C0.737932 0.366573 0 1.09972 0 2.19944L1.1069 28.2261C1.1069 29.3258 1.84483 30.0589 2.95173 30.0589L20.2931 29.3258C19.5552 28.5927 18.8173 28.2261 18.8173 27.4929Z" transform="translate(16.4741 14.1785)" fill="white"/>
<path d="M11.4379 1.83286C11.4379 1.46629 11.4379 1.09971 11.069 1.09971L9.96208 0.36657C9.59311 -2.10301e-06 9.59311 0 9.22415 0C8.85518 0 8.48622 -2.10301e-06 8.48622 0.36657L7.01035 1.83286C6.27242 1.46629 5.16552 1.09971 4.42759 1.09971C1.84483 1.09971 0 3.29915 0 5.49859C0 8.0646 2.2138 9.89746 4.79656 9.89746C7.37932 9.89746 9.22415 7.69802 9.22415 5.13201V4.76544L11.069 2.93258C11.069 2.566 11.4379 2.19943 11.4379 1.83286ZM9.96208 2.19943L5.90346 6.5983H5.53449H5.16552L2.95173 4.76544C2.58276 4.76544 2.58276 4.39887 2.95173 4.0323L3.32069 3.66573C3.32069 3.29915 3.68966 3.29915 4.05863 3.66573L5.53449 4.76544L8.85518 1.09971H9.22415H9.59312L9.96208 1.46629C10.331 1.83286 10.331 1.83286 9.96208 2.19943Z" transform="translate(33.4468 33.6068)" fill="white"/>
<path d="M8.6284 3.07005L4.56977 4.16976L5.3077 0.137465C3.83184 -0.229108 2.35598 0.137465 1.24908 1.23718C-0.59575 3.07005 -0.226784 6.00262 1.24908 7.46891C3.09391 8.9352 6.04564 8.93521 7.5215 7.10234C8.6284 6.00262 8.99736 4.53634 8.6284 3.07005Z" transform="translate(20.3906 18.8065)" fill="white"/>
<path d="M2.58276 0.733144C2.21379 0.366572 1.47586 0 0.737931 0L0 4.0323L4.05863 2.93258C3.68966 2.19943 3.32069 1.46629 2.58276 0.733144Z" transform="translate(26.0674 17.8441)" fill="#CD4550"/>
<path d="M0.737931 1.46629H3.68966C4.05863 1.46629 4.42759 1.09972 4.42759 0.733144C4.42759 0.366572 4.05863 0 3.68966 0H0.737931C0.368965 0 0 0.366572 0 0.733144C0 1.09972 0.368965 1.46629 0.737931 1.46629Z" transform="translate(21.6387 30.6742)" fill="white"/>
<path d="M7.74828 0L0.737931 0.366574C0.368965 0.366574 0 0.733146 0 1.09972C0 1.46629 0.368965 1.83286 0.737931 1.83286L7.74828 1.46629C8.11725 1.46629 8.48622 1.09972 8.48622 0.733148C8.48622 0.366575 8.11725 0 7.74828 0Z" transform="translate(21.6387 32.8737)" fill="white"/>
<path d="M5.53449 0L0.737931 0.366574C0.368965 0.366574 0 0.733146 0 1.09972C0 1.46629 0.368965 1.83286 0.737931 1.83286L5.53449 1.46629C5.90345 1.46629 6.27242 1.09972 6.27242 0.733144C6.27242 0.366572 6.27242 0 5.53449 0Z" transform="translate(21.6387 35.8064)" fill="white"/>
<path d="M62.9627 54.1348L54.1075 47.17C62.9627 35.0731 61.1179 17.8442 49.6799 7.58014C43.0385 1.71498 34.1834 -0.85103 25.3282 0.248688C18.6868 1.71498 12.4144 5.01413 7.61781 10.1461C-3.45117 22.243 -2.34427 40.9382 10.2006 51.9354C16.842 57.8006 25.6971 60.3666 34.5523 59.2669C40.0868 58.5337 45.6213 55.9677 50.0489 51.9354L58.9041 59.2669C59.642 60 60.3799 60 61.4868 60C62.2248 60 62.9627 59.6334 63.3317 58.9003C64.4386 57.434 64.0696 55.2346 62.9627 54.1348ZM33.4454 52.302C26.804 53.4017 19.7937 51.2023 14.9971 46.8034C5.40401 38.3722 4.66608 24.0759 13.1523 14.9116C16.842 10.8793 21.6385 8.31328 26.804 7.58014C33.4454 6.48042 40.4558 8.67986 45.2523 13.0787C54.4765 21.5099 55.5834 35.8062 47.0972 44.9705C43.4075 49.0028 38.6109 51.5688 33.4454 52.302Z" fill="white"/>
</svg>
