<svg version="1.1" width="55" height="52" viewBox="0 0 55 52" fill="none" xmlns="http://www.w3.org/2000/svg">
<path d="M16.1711 23.8272L1.90248 24.4626L0.951239 1.27078L13.6344 0.635392L13.9515 4.76544C13.9515 5.08314 14.2686 5.40084 14.5857 5.40084L18.7077 5.08314L19.3419 17.791C19.976 17.791 19.3419 17.791 19.976 18.1087L19.3419 4.13005C19.3419 4.13005 19.3419 3.81235 19.0248 3.81235L14.9028 0H14.5857L1.5854 0.317697C0.63416 0.317697 0 0.953089 0 1.90618L0.951239 24.4626C0.951239 25.4157 1.5854 26.0511 2.53664 26.0511L17.4394 25.4157C16.8052 24.7803 16.1711 24.4626 16.1711 23.8272Z" transform="translate(14.1572 12.2881)" fill="white"/>
<path d="M9.82948 1.58848C9.82948 1.27078 9.82948 0.953086 9.5124 0.953086L8.56116 0.317694C8.24408 -1.82261e-06 8.24408 0 7.927 0C7.60992 0 7.29284 -1.82261e-06 7.29284 0.317694L6.02452 1.58848C5.39036 1.27078 4.43912 0.953086 3.80496 0.953086C1.5854 0.953086 0 2.85927 0 4.76544C0 6.98932 1.90248 8.5778 4.12204 8.5778C6.3416 8.5778 7.927 6.67162 7.927 4.44775V4.13005L9.5124 2.54157C9.5124 2.22387 9.82948 1.90618 9.82948 1.58848ZM8.56116 1.90618L5.07328 5.71853H4.7562H4.43912L2.53664 4.13005C2.21956 4.13005 2.21956 3.81235 2.53664 3.49466L2.85372 3.17696C2.85372 2.85927 3.1708 2.85927 3.48788 3.17696L4.7562 4.13005L7.60992 0.953086H7.927H8.24408L8.56116 1.27078C8.87824 1.58848 8.87824 1.58848 8.56116 1.90618Z" transform="translate(28.7432 29.1259)" fill="white"/>
<path d="M7.41503 2.66071L3.92715 3.61379L4.56131 0.119136C3.29299 -0.19856 2.02467 0.119137 1.07343 1.07222C-0.511972 2.66071 -0.194892 5.20227 1.07343 6.47306C2.65883 7.74384 5.19547 7.74384 6.46379 6.15536C7.41503 5.20227 7.73211 3.93149 7.41503 2.66071Z" transform="translate(17.5234 16.299)" fill="white"/>
<path d="M2.21956 0.635392C1.90248 0.317696 1.26832 0 0.63416 0L0 3.49466L3.48788 2.54157C3.1708 1.90618 2.85372 1.27078 2.21956 0.635392Z" transform="translate(22.4019 15.465)" fill="#CD4550"/>
<path d="M0.63416 1.27078H3.1708C3.48788 1.27078 3.80496 0.953088 3.80496 0.635392C3.80496 0.317696 3.48788 0 3.1708 0H0.63416C0.317079 0 0 0.317696 0 0.635392C0 0.953088 0.317079 1.27078 0.63416 1.27078Z" transform="translate(18.5957 26.5844)" fill="white"/>
<path d="M6.65868 0L0.63416 0.317697C0.317079 0.317697 0 0.635393 0 0.953089C0 1.27079 0.317079 1.58848 0.63416 1.58848L6.65868 1.27079C6.97576 1.27079 7.29284 0.953091 7.29284 0.635395C7.29284 0.317699 6.97576 0 6.65868 0Z" transform="translate(18.5957 28.4905)" fill="white"/>
<path d="M4.7562 0L0.63416 0.317697C0.317079 0.317697 0 0.635393 0 0.953089C0 1.27079 0.317079 1.58848 0.63416 1.58848L4.7562 1.27079C5.07328 1.27079 5.39036 0.953088 5.39036 0.635392C5.39036 0.317696 5.39036 0 4.7562 0Z" transform="translate(18.5957 31.0323)" fill="white"/>
<path d="M54.1086 46.9169L46.4986 40.8806C54.1086 30.3967 52.5232 15.4649 42.6937 6.56945C36.9862 1.48631 29.3763 -0.737559 21.7664 0.215529C16.059 1.48631 10.6686 4.34558 6.54655 8.79333C-2.96585 19.2773 -2.01461 35.4798 8.76611 45.0107C14.4736 50.0938 22.0835 52.3177 29.6934 51.3646C34.4496 50.7292 39.2058 48.5053 43.0108 45.0107L50.6207 51.3646C51.2548 52 51.889 52 52.8402 52C53.4744 52 54.1086 51.6823 54.4256 51.0469C55.3769 49.7761 55.0598 47.87 54.1086 46.9169ZM28.7422 45.3284C23.0347 46.2815 17.0102 44.3753 12.8882 40.5629C4.64407 33.2559 4.00991 20.8658 11.3028 12.9234C14.4736 9.42872 18.5956 7.20484 23.0347 6.56945C28.7422 5.61636 34.7667 7.52254 38.8887 11.3349C46.8157 18.6419 47.767 31.0321 40.4741 38.9745C37.3033 42.4691 33.1813 44.693 28.7422 45.3284Z" fill="white"/>
</svg>
