<svg width="90" height="54" viewBox="0 0 90 54" fill="none" xmlns="http://www.w3.org/2000/svg">
<path d="M14.1429 28.2454C21.9537 28.2454 28.2857 21.9224 28.2857 14.1227C28.2857 6.32294 21.9537 0 14.1429 0C6.33197 0 0 6.32294 0 14.1227C0 21.9224 6.33197 28.2454 14.1429 28.2454Z" transform="translate(53.5713 12.4879)" fill="#4690CD"/>
<path d="M14.1429 28.2454C21.9537 28.2454 28.2857 21.9224 28.2857 14.1227C28.2857 6.32294 21.9537 0 14.1429 0C6.33197 0 0 6.32294 0 14.1227C0 21.9224 6.33197 28.2454 14.1429 28.2454Z" transform="translate(8.46387 12.4879)" fill="#4690CD"/>
<path d="M85.5 12.7019C84.9643 8.52924 88.7143 3.39372 87.4286 0.718973C86.1429 -1.84879 83.3571 3.28673 73.7143 3.28673C72.1071 3.28673 17.3571 3.28673 15.8571 3.28673C6.21429 3.39372 3.42857 -1.7418 2.14286 0.825963C0.857143 3.50071 4.92857 8.9572 4.07143 13.2368C1.92857 16.4465 0 20.7261 0 25.5407C0 40.7332 6.53571 51.2183 45 51.2183C83.4643 51.2183 90 40.7332 90 25.5407C90 20.5121 88.0714 16.3395 85.5 12.7019ZM22.6071 46.1897C11.7857 46.1897 3.10714 37.4165 3.10714 26.6106C3.10714 15.8046 11.7857 7.13837 22.6071 7.13837C33.4286 7.13837 42.2143 15.9116 42.2143 26.7175C42.2143 37.4165 33.4286 46.1897 22.6071 46.1897ZM67.7143 46.1897C56.8929 46.1897 48.1071 37.4165 48.1071 26.6106C48.1071 15.8046 56.8929 7.03138 67.7143 7.03138C78.5357 7.03138 87.3214 15.8046 87.3214 26.6106C87.3214 37.4165 78.5357 46.1897 67.7143 46.1897Z" fill="#4690CD"/>
<path d="M16.2857 11.5549C15.75 11.127 15.2143 10.592 14.6786 10.0571C12.1071 7.4893 10.1786 4.38659 9.10714 0.962909C8.89286 0.320969 8.25 -4.08135e-07 8.14286 -4.08135e-07C8.03571 -4.08135e-07 7.5 0.320969 7.28571 0.962909C6.21429 4.38659 4.28571 7.4893 1.71429 10.0571C1.17857 10.592 0.642857 11.127 0.107143 11.5549C0.107143 11.6619 1.63487e-06 11.6619 1.63487e-06 11.6619C1.63487e-06 11.6619 5.25 21.933 8.14286 21.933C11.0357 21.933 16.2857 11.6619 16.2857 11.5549C16.2857 11.6619 16.2857 11.5549 16.2857 11.5549Z" transform="translate(36.8569 32.067)" fill="#D91E39"/>
</svg>
