<!-- Generated by IcoMoon.io -->
<svg version="1.1" xmlns="http://www.w3.org/2000/svg" width="32" height="32" viewBox="0 0 32 32">
<title>f-in</title>
<path fill="#fff" d="M16 0c8.836 0 16 7.164 16 16s-7.164 16-16 16c-8.836 0-16-7.164-16-16s7.163-16 16-16z"></path>
<path fill="#384b61" d="M21.522 6.998h-11.045c-1.919 0-3.479 1.561-3.479 3.479v11.046c0 1.919 1.561 3.479 3.479 3.479h11.046c1.919 0 3.479-1.561 3.479-3.479v-11.046c-0-1.918-1.561-3.479-3.48-3.479zM22.618 9.011l0.394-0.001v2.988l-3.010 0.010-0.010-2.988 2.626-0.009zM16 12.988c2.497 0 3.012 2.344 3.012 3.013 0 1.659-1.352 3.011-3.012 3.011-1.661 0-3.012-1.352-3.012-3.011-0.001-0.669 0.515-3.013 3.012-3.013zM23.029 21.305c0 0.951-0.773 1.725-1.726 1.725h-10.64c-0.952 0-1.726-0.773-1.726-1.725v-7.309h2.5c-0.232 0.571-0.363 1.351-0.363 2.005 0 2.714 2.208 4.923 4.923 4.923s4.922-2.209 4.922-4.923c0-0.654-0.131-1.434-0.362-2.005h2.47v7.309h0.002z"></path>
</svg>
