<!-- Generated by IcoMoon.io -->
<svg version="1.1" xmlns="http://www.w3.org/2000/svg" width="32" height="32" viewBox="0 0 32 32">
<title>f-tw</title>
<path fill="#fff" d="M16 0c8.837 0 16 7.164 16 16s-7.163 16-16 16c-8.837 0-16-7.163-16-16s7.163-16 16-16z"></path>
<path fill="#384b61" d="M26.003 10.779c-0.699 0.302-1.451 0.505-2.24 0.597 0.806-0.469 1.424-1.21 1.715-2.095-0.754 0.435-1.588 0.75-2.477 0.919-0.711-0.735-1.724-1.194-2.846-1.194-2.152 0-3.898 1.693-3.898 3.783 0 0.297 0.034 0.586 0.101 0.863-3.24-0.158-6.114-1.665-8.036-3.954-0.336 0.559-0.528 1.208-0.528 1.902 0 1.312 0.688 2.472 1.734 3.149-0.64-0.020-1.24-0.189-1.767-0.474v0.048c0 1.834 1.344 3.363 3.128 3.711-0.327 0.086-0.671 0.133-1.027 0.133-0.251 0-0.495-0.023-0.733-0.068 0.496 1.504 1.936 2.598 3.643 2.628-1.335 1.016-3.016 1.62-4.843 1.62-0.315 0-0.625-0.018-0.931-0.053 1.727 1.074 3.775 1.701 5.978 1.701 7.172 0 11.094-5.768 11.094-10.768l-0.011-0.49c0.76-0.532 1.421-1.198 1.944-1.958z"></path>
</svg>
