<!-- Generated by IcoMoon.io -->
<svg version="1.1" xmlns="http://www.w3.org/2000/svg" width="38" height="32" viewBox="0 0 38 32">
<title>se-icon-1</title>
<path fill="#fff" d="M6.706 6.069c0 0.914-0.751 1.655-1.676 1.655s-1.676-0.741-1.676-1.655c0-0.914 0.751-1.655 1.676-1.655s1.676 0.741 1.676 1.655z"></path>
<path fill="#fff" d="M12.294 6.069c0 0.914-0.751 1.655-1.676 1.655s-1.676-0.741-1.676-1.655c0-0.914 0.751-1.655 1.676-1.655s1.676 0.741 1.676 1.655z"></path>
<path fill="#fff" d="M17.882 6.069c0 0.914-0.751 1.655-1.676 1.655s-1.676-0.741-1.676-1.655c0-0.914 0.751-1.655 1.676-1.655s1.676 0.741 1.676 1.655z"></path>
<path fill="#fff" d="M35 2c0.552 0 1 0.448 1 1v26c0 0.552-0.448 1-1 1h-32c-0.552 0-1-0.448-1-1v-26c0-0.552 0.448-1 1-1h32zM3 0c-1.657 0-3 1.343-3 3v26c0 1.657 1.343 3 3 3h32c1.657 0 3-1.343 3-3v-26c0-1.657-1.343-3-3-3h-32z"></path>
<path fill="#fff" d="M0.95 9.931h36.1v2.207h-36.1v-2.207z"></path>
</svg>
