<!-- Generated by IcoMoon.io -->
<svg version="1.1" xmlns="http://www.w3.org/2000/svg" width="38" height="32" viewBox="0 0 38 32">
<title>se-icon-3</title>
<path fill="#fff" d="M35 2c0.552 0 1 0.448 1 1v20c0 0.552-0.448 1-1 1h-32c-0.552 0-1-0.448-1-1v-20c0-0.552 0.448-1 1-1h32zM3 0c-1.657 0-3 1.343-3 3v20c0 1.657 1.343 3 3 3h32c1.657 0 3-1.343 3-3v-20c0-1.657-1.343-3-3-3h-32z"></path>
<path fill="#fff" d="M7 30h24v2h-24v-2z"></path>
<path fill="#fff" d="M9 11h4v1h-4v-1z"></path>
<path fill="#fff" d="M18 26h2v6h-2v-6z"></path>
<path fill="#fff" d="M8.293 8l-2.646-2.646 0.707-0.707 3.354 3.354-3.354 3.354-0.707-0.707 2.646-2.646z"></path>
</svg>
