<!-- Generated by IcoMoon.io -->
<svg version="1.1" xmlns="http://www.w3.org/2000/svg" width="20" height="32" viewBox="0 0 20 32">
<title>se-icon-2</title>
<path fill="#fff" d="M10.936 27.928c0 0.696-0.572 1.261-1.277 1.261s-1.277-0.565-1.277-1.261c0-0.696 0.572-1.261 1.277-1.261s1.277 0.565 1.277 1.261z"></path>
<path fill="#fff" d="M17.524 1.524c0.421 0 0.762 0.341 0.762 0.762v27.429c0 0.421-0.341 0.762-0.762 0.762h-15.238c-0.421 0-0.762-0.341-0.762-0.762v-27.429c0-0.421 0.341-0.762 0.762-0.762h15.238zM2.286 0c-1.262 0-2.286 1.023-2.286 2.286v27.429c0 1.262 1.023 2.286 2.286 2.286h15.238c1.262 0 2.286-1.023 2.286-2.286v-27.429c0-1.262-1.023-2.286-2.286-2.286h-15.238z"></path>
<path fill="#fff" d="M1.524 23.619h17.524v1.524h-17.524v-1.524z"></path>
<path fill="#fff" d="M1.524 3.048h17.524v1.524h-17.524v-1.524z"></path>
</svg>
